<svg xmlns="http://www.w3.org/2000/svg" xmlns:xlink="http://www.w3.org/1999/xlink" width="1080" zoomAndPan="magnify" viewBox="0 0 810 809.999993" height="1080" preserveAspectRatio="xMidYMid meet" version="1.0"><path fill="#000000" d="M 701.175781 619.503906 L 108.824219 619.503906 L 108.824219 188.699219 L 454.292969 188.699219 C 461.726562 188.699219 467.753906 182.671875 467.753906 175.238281 C 467.753906 167.804688 461.726562 161.777344 454.292969 161.777344 L 95.359375 161.777344 C 87.925781 161.777344 81.898438 167.804688 81.898438 175.238281 L 81.898438 632.96875 C 81.898438 640.398438 87.925781 646.429688 95.359375 646.429688 L 714.640625 646.429688 C 722.074219 646.429688 728.101562 640.398438 728.101562 632.96875 L 728.101562 175.238281 C 728.101562 167.804688 722.074219 161.777344 714.640625 161.777344 C 707.207031 161.777344 701.175781 167.804688 701.175781 175.238281 Z M 701.175781 619.503906 " fill-opacity="1" fill-rule="nonzero"/><path fill="#000000" d="M 95.359375 592.578125 L 714.640625 592.578125 C 722.074219 592.578125 728.101562 586.550781 728.101562 579.117188 C 728.101562 571.683594 722.074219 565.652344 714.640625 565.652344 L 95.359375 565.652344 C 87.925781 565.652344 81.898438 571.683594 81.898438 579.117188 C 81.898438 586.550781 87.925781 592.578125 95.359375 592.578125 Z M 95.359375 592.578125 " fill-opacity="1" fill-rule="nonzero"/><path fill="#000000" d="M 283.835938 727.203125 L 526.164062 727.203125 C 533.597656 727.203125 539.625 721.175781 539.625 713.742188 C 539.625 706.308594 533.597656 700.28125 526.164062 700.28125 L 283.835938 700.28125 C 276.402344 700.28125 270.375 706.308594 270.375 713.742188 C 270.375 721.175781 276.402344 727.203125 283.835938 727.203125 Z M 283.835938 727.203125 " fill-opacity="1" fill-rule="nonzero"/><path fill="#000000" d="M 323.523438 718.019531 L 350.449219 637.242188 C 352.832031 630.160156 348.976562 622.519531 341.964844 620.207031 C 334.882812 617.820312 327.238281 621.679688 324.925781 628.691406 L 298 709.464844 C 295.617188 716.546875 299.472656 724.191406 306.484375 726.503906 C 313.566406 728.886719 321.210938 725.03125 323.523438 718.019531 Z M 323.523438 718.019531 " fill-opacity="1" fill-rule="nonzero"/><path fill="#000000" d="M 486.476562 718.019531 L 459.550781 637.242188 C 457.167969 630.160156 461.023438 622.519531 468.035156 620.207031 C 475.117188 617.820312 482.761719 621.679688 485.074219 628.691406 L 512 709.464844 C 514.382812 716.546875 510.527344 724.191406 503.515625 726.503906 C 496.433594 728.886719 488.789062 725.03125 486.476562 718.019531 Z M 486.476562 718.019531 " fill-opacity="1" fill-rule="nonzero"/><path fill="#000000" d="M 657.5625 201.8125 L 382.070312 443.71875 C 379.476562 445.960938 367.207031 428.644531 353.535156 415.179688 C 338.667969 400.527344 322.542969 389.449219 324.996094 386.644531 L 566.902344 111.152344 C 591.863281 83.035156 633.863281 81.769531 660.367188 108.347656 C 687.011719 134.921875 685.679688 176.851562 657.5625 201.8125 Z M 641.367188 127.347656 C 625.730469 111.78125 601.75 112.484375 587.097656 128.960938 L 353.535156 394.917969 L 373.796875 415.179688 L 639.683594 181.6875 C 656.230469 166.964844 657.003906 142.984375 641.367188 127.347656 Z M 641.367188 127.347656 " fill-opacity="1" fill-rule="nonzero"/><path fill="#000000" d="M 209.441406 509.210938 C 201.378906 502.6875 203.410156 489.855469 213.085938 486.140625 C 230.40625 479.550781 239.453125 467.277344 251.652344 439.089844 C 262.589844 413.847656 265.605469 407.960938 274.160156 399.335938 C 300.453125 373.039062 343.085938 373.039062 369.378906 399.335938 C 395.675781 425.628906 395.675781 468.261719 369.378906 494.554688 C 333.972656 529.894531 255.578125 546.230469 209.441406 509.210938 Z M 350.308594 475.480469 C 366.085938 459.707031 366.085938 434.183594 350.308594 418.40625 C 334.53125 402.628906 309.007812 402.628906 293.230469 418.40625 C 288.183594 423.453125 285.519531 428.574219 276.402344 449.75 C 266.515625 472.609375 257.613281 487.824219 245.0625 498.410156 C 279.980469 510.679688 328.082031 497.78125 350.308594 475.480469 Z M 350.308594 475.480469 " fill-opacity="1" fill-rule="nonzero"/><path fill="#000000" d="M 381.019531 348.78125 L 419.863281 387.414062 C 425.125 392.671875 433.609375 392.671875 438.867188 387.414062 C 444.125 382.15625 444.125 373.601562 438.867188 368.34375 L 400.023438 329.707031 C 394.761719 324.449219 386.207031 324.519531 380.949219 329.777344 C 375.691406 335.035156 375.761719 343.519531 381.019531 348.78125 Z M 381.019531 348.78125 " fill-opacity="1" fill-rule="nonzero"/></svg>