<svg xmlns="http://www.w3.org/2000/svg" xmlns:xlink="http://www.w3.org/1999/xlink" width="1080" zoomAndPan="magnify" viewBox="0 0 810 809.999993" height="1080" preserveAspectRatio="xMidYMid meet" version="1.0"><defs><clipPath id="5b3afed882"><path d="M 167.300781 167.300781 L 642.800781 167.300781 L 642.800781 642 L 167.300781 642 Z M 167.300781 167.300781 " clip-rule="nonzero"/></clipPath></defs><path fill="#100f0d" d="M 415.6875 337.988281 C 411.335938 343.839844 406.148438 346.8125 400.109375 346.8125 C 395.996094 346.8125 392.6875 344.648438 390.191406 340.34375 C 387.671875 336.039062 386.386719 330.710938 386.386719 324.265625 C 386.386719 316.347656 388.167969 309.972656 391.691406 305.144531 C 395.234375 300.292969 399.609375 297.820312 404.839844 297.820312 C 409.382812 297.820312 413.402344 299.628906 416.945312 303.289062 C 420.492188 306.929688 422.273438 311.78125 422.273438 317.84375 C 422.226562 325.429688 420.039062 332.113281 415.6875 337.988281 Z M 472.359375 249.539062 C 455.164062 233.703125 433.785156 225.78125 408.265625 225.78125 C 381.414062 225.78125 358.558594 234.773438 339.675781 252.800781 C 320.792969 270.851562 311.328125 293.253906 311.328125 320.082031 C 311.328125 345.8125 320.339844 367.90625 338.296875 386.433594 C 356.324219 404.984375 380.535156 414.234375 411.023438 414.234375 C 429.410156 414.234375 447.4375 410.476562 465.128906 402.890625 C 470.886719 400.441406 473.714844 393.828125 471.359375 388.027344 C 468.933594 382.035156 462.085938 379.25 456.140625 381.796875 C 440.753906 388.40625 425.675781 391.714844 411 391.714844 C 387.621094 391.714844 369.523438 384.601562 356.65625 370.332031 C 343.863281 356.109375 337.441406 339.390625 337.441406 320.199219 C 337.441406 299.367188 344.339844 281.980469 358.0625 268.019531 C 371.734375 254.105469 388.621094 247.113281 408.621094 247.113281 C 427.03125 247.113281 442.609375 252.847656 455.285156 264.285156 C 467.984375 275.75 474.308594 290.160156 474.308594 307.546875 C 474.308594 319.4375 471.386719 329.355469 465.582031 337.226562 C 459.777344 345.148438 453.738281 349.070312 447.484375 349.070312 C 444.105469 349.070312 442.394531 347.261719 442.394531 343.625 C 442.394531 340.652344 442.632812 337.203125 443.058594 333.183594 L 449.527344 277.699219 C 449.886719 274.558594 447.460938 271.824219 444.320312 271.824219 L 429.980469 271.824219 C 427.433594 271.824219 425.269531 273.65625 424.820312 276.128906 L 424.035156 280.457031 C 417.753906 275.320312 410.882812 272.753906 403.414062 272.753906 C 391.570312 272.753906 381.414062 277.484375 372.996094 286.902344 C 364.554688 296.320312 360.367188 308.472656 360.367188 323.316406 C 360.367188 337.820312 364.101562 349.523438 371.59375 358.417969 C 379.085938 367.335938 388.074219 371.757812 398.609375 371.757812 C 408.027344 371.757812 416.066406 367.789062 422.773438 359.914062 C 427.792969 367.503906 435.210938 371.261719 445.011719 371.261719 C 459.421875 371.261719 471.882812 364.980469 482.394531 352.425781 C 492.882812 339.890625 498.164062 324.742188 498.164062 307.023438 C 498.164062 284.574219 489.578125 265.378906 472.359375 249.539062 " fill-opacity="1" fill-rule="nonzero"/><g clip-path="url(#5b3afed882)"><path fill="#100f0d" d="M 335.515625 490.625 L 196.101562 598.742188 L 195.816406 394.066406 Z M 585.398438 613.105469 L 223.808594 613.605469 L 404.9375 473.097656 Z M 396.136719 443.605469 L 359.296875 472.171875 L 268.710938 409.527344 L 268.898438 196.410156 L 540.972656 196.410156 L 540.78125 409.003906 L 450.265625 471.933594 L 413.734375 443.605469 C 413.664062 443.535156 413.570312 443.488281 413.546875 443.464844 C 408.359375 439.585938 401.226562 439.660156 396.136719 443.605469 Z M 613.675781 598.695312 L 474.046875 490.386719 L 613.390625 393.496094 Z M 569.488281 389.050781 L 569.488281 344.289062 L 601.691406 366.671875 Z M 206.683594 366.671875 L 240.003906 343.625 L 240.003906 389.691406 Z M 642.050781 366.457031 C 642.050781 365.578125 641.882812 364.269531 641.503906 363.316406 C 640.574219 360.128906 638.601562 357.371094 635.890625 355.492188 L 569.488281 309.332031 L 569.679688 182.046875 C 569.679688 174.148438 563.234375 167.703125 555.335938 167.703125 L 254.535156 167.703125 C 246.640625 167.703125 240.195312 174.148438 240.195312 182.046875 L 240.003906 308.734375 L 173.269531 354.851562 C 169.511719 357.441406 167.207031 361.746094 167.109375 366.335938 C 167.085938 366.457031 167.085938 366.574219 167.085938 366.695312 L 167.441406 628.015625 C 167.441406 631.871094 168.941406 635.460938 171.652344 638.171875 C 174.363281 640.882812 177.765625 641.789062 181.617188 641.789062 L 628.089844 641.738281 C 635.984375 641.738281 642.429688 635.292969 642.40625 627.375 L 642.050781 366.457031 " fill-opacity="1" fill-rule="nonzero"/></g></svg>