<svg xmlns="http://www.w3.org/2000/svg" xmlns:xlink="http://www.w3.org/1999/xlink" width="1080" zoomAndPan="magnify" viewBox="0 0 810 809.999993" height="1080" preserveAspectRatio="xMidYMid meet" version="1.0"><defs><clipPath id="247b9dc64c"><path d="M 191.515625 189 L 618.265625 189 L 618.265625 632.976562 L 191.515625 632.976562 Z M 191.515625 189 " clip-rule="nonzero"/></clipPath></defs><g clip-path="url(#247b9dc64c)"><path fill="#000000" d="M 472.960938 483.277344 L 520.785156 417.714844 C 522.078125 415.941406 523.328125 414.140625 524.539062 412.3125 C 525.75 410.480469 526.917969 408.625 528.042969 406.742188 C 529.167969 404.859375 530.25 402.949219 531.289062 401.015625 C 532.324219 399.082031 533.316406 397.128906 534.265625 395.148438 C 535.214844 393.167969 536.117188 391.171875 536.972656 389.148438 C 537.828125 387.128906 538.636719 385.089844 539.402344 383.035156 C 540.164062 380.976562 540.878906 378.902344 541.546875 376.8125 C 542.214844 374.722656 542.835938 372.617188 543.40625 370.5 C 543.976562 368.378906 544.5 366.25 544.972656 364.109375 C 545.449219 361.964844 545.871094 359.8125 546.246094 357.652344 C 546.621094 355.488281 546.945312 353.320312 547.222656 351.140625 C 547.496094 348.964844 547.722656 346.78125 547.898438 344.597656 C 548.074219 342.410156 548.199219 340.21875 548.273438 338.027344 C 548.351562 335.832031 548.375 333.640625 548.347656 331.445312 C 548.324219 329.25 548.246094 327.058594 548.121094 324.867188 C 547.996094 322.675781 547.820312 320.488281 547.59375 318.308594 C 547.367188 316.125 547.089844 313.949219 546.765625 311.777344 C 546.4375 309.609375 546.0625 307.445312 545.636719 305.292969 C 545.210938 303.140625 544.738281 301 544.214844 298.867188 C 543.691406 296.738281 543.121094 294.621094 542.5 292.515625 C 541.878906 290.410156 541.210938 288.320312 540.496094 286.246094 C 539.777344 284.171875 539.015625 282.117188 538.203125 280.078125 C 537.394531 278.039062 536.535156 276.019531 535.632812 274.019531 C 534.730469 272.019531 533.78125 270.042969 532.789062 268.085938 C 531.792969 266.128906 530.757812 264.195312 529.675781 262.289062 C 528.59375 260.378906 527.464844 258.496094 526.296875 256.640625 C 525.128906 254.785156 523.917969 252.953125 522.667969 251.152344 C 521.414062 249.351562 520.121094 247.578125 518.785156 245.839844 C 517.453125 244.097656 516.078125 242.386719 514.667969 240.707031 C 513.253906 239.027344 511.804688 237.382812 510.316406 235.769531 C 508.832031 234.15625 507.304688 232.578125 505.746094 231.035156 C 504.1875 229.492188 502.59375 227.988281 500.964844 226.519531 C 499.332031 225.050781 497.671875 223.617188 495.976562 222.226562 C 494.28125 220.832031 492.558594 219.476562 490.800781 218.164062 C 489.042969 216.851562 487.257812 215.578125 485.441406 214.34375 C 483.628906 213.113281 481.785156 211.921875 479.914062 210.777344 C 478.046875 209.628906 476.152344 208.523438 474.230469 207.464844 C 472.3125 206.402344 470.367188 205.386719 468.402344 204.414062 C 466.433594 203.445312 464.445312 202.519531 462.4375 201.636719 C 460.425781 200.757812 458.398438 199.925781 456.351562 199.136719 C 454.304688 198.351562 452.238281 197.609375 450.160156 196.917969 C 448.078125 196.226562 445.980469 195.582031 443.871094 194.984375 C 441.757812 194.390625 439.636719 193.84375 437.5 193.34375 C 435.363281 192.84375 433.21875 192.394531 431.0625 191.996094 C 428.902344 191.59375 426.738281 191.242188 424.566406 190.941406 C 422.394531 190.640625 420.214844 190.390625 418.03125 190.191406 C 415.847656 189.988281 413.660156 189.839844 411.46875 189.738281 C 409.277344 189.636719 407.085938 189.585938 404.890625 189.585938 C 402.699219 189.585938 400.507812 189.636719 398.316406 189.738281 C 396.125 189.839844 393.9375 189.988281 391.75 190.191406 C 389.566406 190.390625 387.390625 190.640625 385.214844 190.941406 C 383.042969 191.242188 380.878906 191.59375 378.722656 191.996094 C 376.566406 192.394531 374.417969 192.84375 372.285156 193.34375 C 370.148438 193.84375 368.023438 194.390625 365.914062 194.984375 C 363.800781 195.582031 361.707031 196.226562 359.625 196.917969 C 357.542969 197.609375 355.480469 198.351562 353.433594 199.136719 C 351.382812 199.925781 349.355469 200.757812 347.347656 201.636719 C 345.335938 202.519531 343.347656 203.445312 341.382812 204.414062 C 339.414062 205.386719 337.472656 206.402344 335.550781 207.464844 C 333.632812 208.523438 331.738281 209.628906 329.867188 210.777344 C 327.996094 211.921875 326.15625 213.113281 324.339844 214.34375 C 322.523438 215.578125 320.738281 216.851562 318.984375 218.164062 C 317.226562 219.476562 315.5 220.832031 313.804688 222.226562 C 312.109375 223.617188 310.449219 225.050781 308.820312 226.519531 C 307.191406 227.988281 305.597656 229.492188 304.035156 231.035156 C 302.476562 232.578125 300.953125 234.15625 299.464844 235.769531 C 297.976562 237.382812 296.527344 239.027344 295.117188 240.707031 C 293.703125 242.386719 292.332031 244.097656 290.996094 245.839844 C 289.664062 247.578125 288.371094 249.351562 287.117188 251.152344 C 285.863281 252.953125 284.652344 254.785156 283.484375 256.640625 C 282.316406 258.496094 281.191406 260.378906 280.109375 262.289062 C 279.027344 264.199219 277.988281 266.128906 276.996094 268.085938 C 276 270.042969 275.050781 272.019531 274.148438 274.019531 C 273.246094 276.019531 272.390625 278.039062 271.578125 280.078125 C 270.769531 282.117188 270.003906 284.171875 269.289062 286.246094 C 268.574219 288.320312 267.902344 290.410156 267.285156 292.515625 C 266.664062 294.621094 266.089844 296.738281 265.566406 298.867188 C 265.042969 301 264.570312 303.140625 264.144531 305.292969 C 263.71875 307.445312 263.34375 309.609375 263.019531 311.777344 C 262.691406 313.949219 262.417969 316.125 262.191406 318.308594 C 261.964844 320.488281 261.789062 322.675781 261.660156 324.867188 C 261.535156 327.058594 261.460938 329.25 261.433594 331.445312 C 261.410156 333.640625 261.433594 335.832031 261.507812 338.027344 C 261.582031 340.21875 261.710938 342.410156 261.882812 344.597656 C 262.058594 346.78125 262.285156 348.964844 262.5625 351.140625 C 262.835938 353.320312 263.160156 355.488281 263.535156 357.652344 C 263.910156 359.8125 264.335938 361.964844 264.808594 364.109375 C 265.285156 366.25 265.804688 368.378906 266.378906 370.5 C 266.949219 372.617188 267.566406 374.722656 268.234375 376.8125 C 268.902344 378.902344 269.617188 380.976562 270.382812 383.035156 C 271.144531 385.089844 271.953125 387.128906 272.8125 389.148438 C 273.667969 391.171875 274.570312 393.167969 275.515625 395.148438 C 276.464844 397.128906 277.457031 399.082031 278.496094 401.015625 C 279.535156 402.949219 280.613281 404.859375 281.738281 406.742188 C 282.867188 408.625 284.03125 410.480469 285.242188 412.3125 C 286.453125 414.140625 287.707031 415.941406 289 417.714844 L 336.835938 483.296875 C 257.363281 492.140625 191.515625 516.753906 191.515625 556.09375 C 191.515625 606.332031 298.855469 632.621094 404.890625 632.621094 C 510.925781 632.621094 618.265625 606.332031 618.265625 556.09375 C 618.265625 516.753906 552.433594 492.121094 472.960938 483.277344 Z M 308.511719 403.46875 C 307.433594 401.996094 306.394531 400.496094 305.386719 398.976562 C 304.382812 397.453125 303.410156 395.910156 302.472656 394.34375 C 301.539062 392.777344 300.640625 391.191406 299.777344 389.582031 C 298.914062 387.972656 298.085938 386.347656 297.300781 384.703125 C 296.511719 383.054688 295.761719 381.394531 295.046875 379.714844 C 294.335938 378.035156 293.664062 376.335938 293.027344 374.625 C 292.394531 372.914062 291.796875 371.191406 291.242188 369.453125 C 290.6875 367.714844 290.171875 365.964844 289.695312 364.203125 C 289.222656 362.441406 288.789062 360.667969 288.394531 358.886719 C 288 357.105469 287.644531 355.316406 287.335938 353.515625 C 287.023438 351.71875 286.753906 349.914062 286.523438 348.105469 C 286.292969 346.292969 286.105469 344.480469 285.960938 342.660156 C 285.8125 340.839844 285.710938 339.019531 285.648438 337.195312 C 285.585938 335.371094 285.566406 333.546875 285.585938 331.722656 C 285.605469 329.898438 285.667969 328.074219 285.773438 326.253906 C 285.878906 324.429688 286.027344 322.613281 286.214844 320.796875 C 286.402344 318.984375 286.632812 317.171875 286.902344 315.367188 C 287.175781 313.5625 287.488281 311.765625 287.839844 309.976562 C 288.195312 308.183594 288.585938 306.402344 289.023438 304.632812 C 289.457031 302.859375 289.933594 301.097656 290.449219 299.347656 C 290.964844 297.597656 291.523438 295.859375 292.117188 294.136719 C 292.710938 292.410156 293.347656 290.699219 294.023438 289.003906 C 294.695312 287.308594 295.40625 285.628906 296.160156 283.964844 C 296.910156 282.304688 297.699219 280.65625 298.527344 279.03125 C 299.351562 277.402344 300.214844 275.796875 301.117188 274.210938 C 302.015625 272.621094 302.953125 271.058594 303.921875 269.511719 C 304.894531 267.96875 305.902344 266.445312 306.945312 264.949219 C 307.984375 263.449219 309.0625 261.976562 310.171875 260.527344 C 311.277344 259.078125 312.421875 257.65625 313.59375 256.261719 C 314.769531 254.863281 315.976562 253.496094 317.210938 252.15625 C 318.449219 250.8125 319.71875 249.5 321.015625 248.21875 C 322.3125 246.9375 323.636719 245.683594 324.992188 244.460938 C 326.347656 243.238281 327.730469 242.050781 329.140625 240.890625 C 330.546875 239.730469 331.984375 238.605469 333.445312 237.511719 C 334.90625 236.421875 336.390625 235.363281 337.898438 234.335938 C 339.410156 233.3125 340.941406 232.324219 342.496094 231.367188 C 344.050781 230.414062 345.628906 229.496094 347.222656 228.613281 C 348.820312 227.734375 350.4375 226.886719 352.074219 226.078125 C 353.707031 225.273438 355.363281 224.503906 357.03125 223.769531 C 358.703125 223.039062 360.390625 222.34375 362.09375 221.691406 C 363.796875 221.035156 365.511719 220.421875 367.242188 219.84375 C 368.976562 219.269531 370.71875 218.734375 372.472656 218.238281 C 374.230469 217.742188 375.996094 217.285156 377.769531 216.871094 C 379.546875 216.457031 381.332031 216.082031 383.125 215.75 C 384.917969 215.417969 386.71875 215.125 388.527344 214.875 C 390.332031 214.625 392.144531 214.417969 393.960938 214.25 C 395.777344 214.082031 397.597656 213.957031 399.421875 213.871094 C 401.242188 213.789062 403.066406 213.746094 404.890625 213.746094 C 406.714844 213.746094 408.535156 213.789062 410.359375 213.871094 C 412.179688 213.957031 414 214.082031 415.816406 214.25 C 417.632812 214.417969 419.445312 214.625 421.253906 214.875 C 423.058594 215.125 424.859375 215.417969 426.652344 215.75 C 428.445312 216.082031 430.230469 216.457031 432.007812 216.871094 C 433.785156 217.285156 435.550781 217.742188 437.304688 218.238281 C 439.0625 218.734375 440.804688 219.269531 442.535156 219.84375 C 444.265625 220.421875 445.984375 221.035156 447.6875 221.691406 C 449.390625 222.34375 451.074219 223.039062 452.746094 223.769531 C 454.417969 224.503906 456.070312 225.273438 457.707031 226.078125 C 459.34375 226.886719 460.957031 227.734375 462.554688 228.613281 C 464.152344 229.496094 465.726562 230.414062 467.28125 231.367188 C 468.839844 232.324219 470.371094 233.3125 471.878906 234.335938 C 473.390625 235.363281 474.875 236.421875 476.335938 237.511719 C 477.796875 238.605469 479.230469 239.730469 480.640625 240.890625 C 482.050781 242.050781 483.433594 243.238281 484.785156 244.460938 C 486.140625 245.683594 487.46875 246.9375 488.765625 248.21875 C 490.0625 249.5 491.328125 250.8125 492.566406 252.15625 C 493.804688 253.496094 495.007812 254.863281 496.183594 256.261719 C 497.359375 257.65625 498.5 259.078125 499.609375 260.527344 C 500.71875 261.976562 501.792969 263.449219 502.835938 264.949219 C 503.878906 266.445312 504.882812 267.96875 505.855469 269.511719 C 506.828125 271.058594 507.765625 272.621094 508.664062 274.210938 C 509.5625 275.796875 510.425781 277.402344 511.253906 279.03125 C 512.082031 280.65625 512.867188 282.304688 513.621094 283.964844 C 514.371094 285.628906 515.082031 287.308594 515.757812 289.003906 C 516.433594 290.699219 517.066406 292.410156 517.664062 294.136719 C 518.257812 295.859375 518.8125 297.597656 519.328125 299.347656 C 519.84375 301.097656 520.320312 302.859375 520.757812 304.632812 C 521.191406 306.402344 521.585938 308.183594 521.9375 309.976562 C 522.292969 311.765625 522.605469 313.5625 522.875 315.367188 C 523.148438 317.171875 523.378906 318.984375 523.566406 320.796875 C 523.753906 322.613281 523.898438 324.429688 524.003906 326.253906 C 524.109375 328.074219 524.171875 329.898438 524.195312 331.722656 C 524.214844 333.546875 524.195312 335.371094 524.132812 337.195312 C 524.070312 339.019531 523.964844 340.839844 523.820312 342.660156 C 523.671875 344.480469 523.484375 346.292969 523.257812 348.105469 C 523.027344 349.914062 522.757812 351.71875 522.445312 353.515625 C 522.132812 355.316406 521.78125 357.105469 521.386719 358.886719 C 520.992188 360.667969 520.558594 362.441406 520.082031 364.203125 C 519.605469 365.964844 519.09375 367.714844 518.535156 369.453125 C 517.980469 371.191406 517.386719 372.914062 516.75 374.625 C 516.117188 376.335938 515.445312 378.035156 514.730469 379.714844 C 514.019531 381.394531 513.269531 383.054688 512.480469 384.703125 C 511.691406 386.347656 510.867188 387.972656 510.003906 389.582031 C 509.140625 391.191406 508.242188 392.777344 507.304688 394.34375 C 506.371094 395.910156 505.398438 397.453125 504.390625 398.976562 C 503.386719 400.496094 502.34375 401.996094 501.269531 403.46875 L 404.890625 535.597656 Z M 404.890625 608.453125 C 289.382812 608.453125 215.671875 577.445312 215.671875 556.09375 C 215.671875 538.128906 268 513.394531 353.382812 505.984375 L 395.132812 563.21875 C 395.410156 563.601562 395.710938 563.964844 396.035156 564.3125 C 396.355469 564.660156 396.699219 564.988281 397.058594 565.296875 C 397.417969 565.601562 397.796875 565.886719 398.191406 566.148438 C 398.585938 566.414062 398.996094 566.652344 399.417969 566.867188 C 399.839844 567.082031 400.273438 567.269531 400.71875 567.433594 C 401.164062 567.597656 401.613281 567.734375 402.074219 567.84375 C 402.535156 567.957031 403.003906 568.039062 403.472656 568.09375 C 403.945312 568.148438 404.414062 568.175781 404.890625 568.175781 C 405.363281 568.175781 405.835938 568.148438 406.304688 568.09375 C 406.777344 568.039062 407.242188 567.957031 407.703125 567.84375 C 408.164062 567.734375 408.617188 567.597656 409.0625 567.433594 C 409.507812 567.269531 409.941406 567.082031 410.363281 566.867188 C 410.785156 566.652344 411.191406 566.414062 411.585938 566.148438 C 411.980469 565.886719 412.359375 565.601562 412.71875 565.296875 C 413.082031 564.988281 413.421875 564.660156 413.746094 564.3125 C 414.066406 563.964844 414.367188 563.601562 414.648438 563.21875 L 456.398438 505.984375 C 541.796875 513.386719 594.109375 538.128906 594.109375 556.09375 C 594.109375 577.445312 520.394531 608.453125 404.890625 608.453125 Z M 404.890625 608.453125 " fill-opacity="1" fill-rule="nonzero"/></g><path fill="#000000" d="M 475.289062 333.113281 C 475.289062 331.960938 475.261719 330.808594 475.203125 329.65625 C 475.148438 328.503906 475.0625 327.355469 474.949219 326.210938 C 474.835938 325.0625 474.695312 323.917969 474.527344 322.777344 C 474.359375 321.636719 474.160156 320.503906 473.9375 319.371094 C 473.710938 318.242188 473.460938 317.117188 473.179688 316 C 472.898438 314.882812 472.59375 313.773438 472.257812 312.667969 C 471.921875 311.566406 471.5625 310.472656 471.175781 309.386719 C 470.785156 308.300781 470.371094 307.226562 469.929688 306.160156 C 469.488281 305.097656 469.023438 304.042969 468.53125 303 C 468.039062 301.960938 467.519531 300.929688 466.976562 299.914062 C 466.433594 298.898438 465.867188 297.894531 465.273438 296.90625 C 464.683594 295.917969 464.066406 294.945312 463.425781 293.984375 C 462.785156 293.027344 462.121094 292.085938 461.4375 291.160156 C 460.75 290.234375 460.042969 289.324219 459.308594 288.433594 C 458.578125 287.542969 457.828125 286.671875 457.054688 285.816406 C 456.28125 284.960938 455.484375 284.128906 454.671875 283.3125 C 453.855469 282.5 453.023438 281.703125 452.167969 280.929688 C 451.316406 280.15625 450.441406 279.402344 449.550781 278.671875 C 448.660156 277.941406 447.753906 277.230469 446.828125 276.546875 C 445.902344 275.859375 444.960938 275.195312 444.003906 274.554688 C 443.046875 273.914062 442.074219 273.296875 441.085938 272.707031 C 440.097656 272.113281 439.09375 271.542969 438.078125 271 C 437.0625 270.457031 436.035156 269.941406 434.992188 269.445312 C 433.949219 268.953125 432.898438 268.488281 431.832031 268.046875 C 430.769531 267.605469 429.695312 267.191406 428.609375 266.800781 C 427.523438 266.414062 426.429688 266.050781 425.328125 265.71875 C 424.226562 265.382812 423.117188 265.074219 422 264.796875 C 420.882812 264.515625 419.757812 264.261719 418.628906 264.039062 C 417.496094 263.8125 416.363281 263.617188 415.222656 263.449219 C 414.082031 263.277344 412.941406 263.136719 411.792969 263.023438 C 410.648438 262.910156 409.5 262.828125 408.347656 262.769531 C 407.199219 262.714844 406.046875 262.683594 404.894531 262.683594 C 403.742188 262.683594 402.589844 262.714844 401.441406 262.769531 C 400.289062 262.824219 399.140625 262.910156 397.992188 263.023438 C 396.847656 263.136719 395.703125 263.277344 394.566406 263.445312 C 393.425781 263.617188 392.289062 263.8125 391.160156 264.039062 C 390.03125 264.261719 388.90625 264.515625 387.789062 264.796875 C 386.671875 265.074219 385.5625 265.382812 384.457031 265.71875 C 383.355469 266.050781 382.261719 266.414062 381.179688 266.800781 C 380.09375 267.1875 379.019531 267.605469 377.953125 268.042969 C 376.890625 268.484375 375.835938 268.953125 374.796875 269.445312 C 373.753906 269.9375 372.726562 270.457031 371.710938 271 C 370.691406 271.542969 369.691406 272.109375 368.703125 272.703125 C 367.714844 273.296875 366.742188 273.914062 365.785156 274.550781 C 364.824219 275.191406 363.882812 275.855469 362.957031 276.542969 C 362.03125 277.230469 361.125 277.9375 360.234375 278.667969 C 359.34375 279.402344 358.472656 280.152344 357.617188 280.925781 C 356.765625 281.703125 355.929688 282.496094 355.117188 283.3125 C 354.300781 284.125 353.507812 284.960938 352.734375 285.8125 C 351.960938 286.667969 351.207031 287.539062 350.476562 288.429688 C 349.746094 289.324219 349.035156 290.230469 348.351562 291.15625 C 347.664062 292.082031 347 293.023438 346.359375 293.984375 C 345.71875 294.941406 345.105469 295.914062 344.511719 296.902344 C 343.917969 297.890625 343.351562 298.894531 342.808594 299.910156 C 342.265625 300.925781 341.746094 301.957031 341.253906 302.996094 C 340.761719 304.039062 340.296875 305.09375 339.855469 306.15625 C 339.414062 307.222656 339 308.296875 338.613281 309.382812 C 338.222656 310.46875 337.863281 311.5625 337.527344 312.664062 C 337.191406 313.769531 336.886719 314.878906 336.605469 315.996094 C 336.324219 317.113281 336.074219 318.238281 335.847656 319.371094 C 335.625 320.5 335.425781 321.636719 335.257812 322.773438 C 335.089844 323.914062 334.949219 325.058594 334.835938 326.207031 C 334.722656 327.351562 334.636719 328.5 334.582031 329.652344 C 334.523438 330.804688 334.496094 331.957031 334.496094 333.109375 C 334.496094 334.261719 334.523438 335.414062 334.582031 336.5625 C 334.636719 337.714844 334.722656 338.863281 334.835938 340.011719 C 334.949219 341.160156 335.089844 342.300781 335.257812 343.441406 C 335.425781 344.582031 335.625 345.71875 335.847656 346.847656 C 336.074219 347.976562 336.324219 349.101562 336.605469 350.21875 C 336.882812 351.339844 337.191406 352.449219 337.527344 353.550781 C 337.859375 354.65625 338.222656 355.75 338.609375 356.835938 C 339 357.917969 339.414062 358.996094 339.851562 360.058594 C 340.292969 361.125 340.761719 362.175781 341.253906 363.21875 C 341.746094 364.261719 342.265625 365.289062 342.808594 366.308594 C 343.351562 367.324219 343.917969 368.328125 344.511719 369.316406 C 345.101562 370.304688 345.71875 371.277344 346.359375 372.234375 C 347 373.195312 347.660156 374.136719 348.347656 375.0625 C 349.035156 375.988281 349.742188 376.894531 350.472656 377.785156 C 351.203125 378.675781 351.957031 379.550781 352.730469 380.402344 C 353.503906 381.257812 354.296875 382.09375 355.113281 382.90625 C 355.925781 383.722656 356.761719 384.515625 357.613281 385.292969 C 358.46875 386.066406 359.339844 386.816406 360.230469 387.550781 C 361.121094 388.28125 362.03125 388.988281 362.957031 389.675781 C 363.878906 390.363281 364.820312 391.027344 365.78125 391.667969 C 366.738281 392.308594 367.710938 392.921875 368.699219 393.515625 C 369.6875 394.109375 370.6875 394.675781 371.707031 395.21875 C 372.722656 395.761719 373.75 396.28125 374.792969 396.773438 C 375.832031 397.265625 376.886719 397.734375 377.949219 398.175781 C 379.015625 398.617188 380.089844 399.03125 381.175781 399.417969 C 382.257812 399.808594 383.351562 400.167969 384.453125 400.503906 C 385.558594 400.839844 386.667969 401.144531 387.785156 401.425781 C 388.902344 401.707031 390.027344 401.957031 391.15625 402.183594 C 392.285156 402.40625 393.421875 402.605469 394.558594 402.773438 C 395.699219 402.941406 396.84375 403.085938 397.988281 403.195312 C 399.136719 403.308594 400.285156 403.394531 401.433594 403.453125 C 402.585938 403.507812 403.738281 403.535156 404.890625 403.535156 C 406.042969 403.535156 407.191406 403.503906 408.34375 403.449219 C 409.492188 403.390625 410.640625 403.304688 411.789062 403.191406 C 412.933594 403.078125 414.074219 402.933594 415.214844 402.765625 C 416.355469 402.59375 417.488281 402.394531 418.617188 402.171875 C 419.746094 401.945312 420.871094 401.691406 421.988281 401.410156 C 423.105469 401.128906 424.214844 400.820312 425.316406 400.488281 C 426.417969 400.152344 427.511719 399.789062 428.59375 399.402344 C 429.679688 399.011719 430.753906 398.597656 431.816406 398.15625 C 432.882812 397.714844 433.933594 397.246094 434.972656 396.753906 C 436.015625 396.261719 437.042969 395.742188 438.058594 395.199219 C 439.074219 394.65625 440.074219 394.085938 441.0625 393.492188 C 442.050781 392.902344 443.023438 392.285156 443.980469 391.644531 C 444.9375 391.003906 445.878906 390.339844 446.804688 389.652344 C 447.730469 388.96875 448.636719 388.257812 449.527344 387.527344 C 450.417969 386.796875 451.289062 386.042969 452.144531 385.269531 C 452.996094 384.496094 453.832031 383.703125 454.644531 382.886719 C 455.460938 382.074219 456.253906 381.238281 457.027344 380.382812 C 457.800781 379.53125 458.550781 378.660156 459.285156 377.769531 C 460.015625 376.878906 460.722656 375.96875 461.410156 375.042969 C 462.09375 374.117188 462.757812 373.175781 463.398438 372.21875 C 464.039062 371.261719 464.65625 370.289062 465.246094 369.300781 C 465.839844 368.3125 466.410156 367.3125 466.953125 366.292969 C 467.496094 365.277344 468.011719 364.25 468.507812 363.207031 C 469 362.167969 469.464844 361.113281 469.90625 360.050781 C 470.347656 358.988281 470.765625 357.910156 471.152344 356.828125 C 471.542969 355.742188 471.902344 354.648438 472.238281 353.546875 C 472.574219 352.445312 472.882812 351.335938 473.164062 350.21875 C 473.445312 349.101562 473.695312 347.976562 473.921875 346.847656 C 474.148438 345.714844 474.347656 344.582031 474.515625 343.441406 C 474.6875 342.300781 474.828125 341.160156 474.941406 340.011719 C 475.054688 338.867188 475.140625 337.71875 475.199219 336.566406 C 475.257812 335.414062 475.289062 334.265625 475.289062 333.113281 Z M 358.648438 333.113281 C 358.648438 331.597656 358.722656 330.085938 358.871094 328.578125 C 359.019531 327.070312 359.242188 325.574219 359.539062 324.085938 C 359.835938 322.601562 360.203125 321.132812 360.640625 319.683594 C 361.082031 318.234375 361.589844 316.808594 362.167969 315.410156 C 362.75 314.007812 363.394531 312.640625 364.109375 311.304688 C 364.824219 309.96875 365.601562 308.671875 366.441406 307.410156 C 367.285156 306.152344 368.183594 304.933594 369.144531 303.765625 C 370.105469 302.59375 371.121094 301.472656 372.195312 300.398438 C 373.265625 299.328125 374.386719 298.3125 375.554688 297.351562 C 376.726562 296.390625 377.941406 295.488281 379.199219 294.648438 C 380.460938 293.804688 381.757812 293.027344 383.09375 292.3125 C 384.429688 291.597656 385.796875 290.953125 387.195312 290.371094 C 388.59375 289.792969 390.019531 289.28125 391.46875 288.84375 C 392.917969 288.402344 394.382812 288.035156 395.871094 287.738281 C 397.355469 287.445312 398.851562 287.222656 400.359375 287.074219 C 401.867188 286.925781 403.375 286.851562 404.890625 286.851562 C 406.40625 286.851562 407.917969 286.925781 409.421875 287.074219 C 410.929688 287.222656 412.425781 287.445312 413.914062 287.738281 C 415.398438 288.035156 416.863281 288.402344 418.3125 288.84375 C 419.761719 289.28125 421.1875 289.792969 422.585938 290.371094 C 423.984375 290.953125 425.351562 291.597656 426.6875 292.3125 C 428.023438 293.027344 429.320312 293.804688 430.582031 294.644531 C 431.839844 295.488281 433.054688 296.390625 434.226562 297.351562 C 435.398438 298.3125 436.515625 299.328125 437.589844 300.398438 C 438.660156 301.472656 439.675781 302.59375 440.636719 303.761719 C 441.597656 304.933594 442.496094 306.148438 443.339844 307.410156 C 444.179688 308.667969 444.957031 309.96875 445.671875 311.304688 C 446.386719 312.640625 447.03125 314.007812 447.613281 315.40625 C 448.191406 316.808594 448.703125 318.230469 449.140625 319.683594 C 449.582031 321.132812 449.949219 322.601562 450.242188 324.085938 C 450.539062 325.570312 450.761719 327.070312 450.910156 328.578125 C 451.058594 330.085938 451.132812 331.59375 451.132812 333.109375 C 451.132812 334.625 451.058594 336.136719 450.910156 337.644531 C 450.761719 339.152344 450.539062 340.648438 450.242188 342.136719 C 449.949219 343.621094 449.582031 345.089844 449.140625 346.539062 C 448.699219 347.988281 448.191406 349.414062 447.613281 350.8125 C 447.03125 352.214844 446.386719 353.582031 445.671875 354.917969 C 444.957031 356.253906 444.179688 357.550781 443.339844 358.8125 C 442.496094 360.070312 441.597656 361.289062 440.636719 362.457031 C 439.675781 363.628906 438.660156 364.75 437.585938 365.820312 C 436.515625 366.894531 435.394531 367.910156 434.226562 368.871094 C 433.054688 369.832031 431.839844 370.734375 430.582031 371.574219 C 429.320312 372.417969 428.023438 373.195312 426.6875 373.910156 C 425.351562 374.625 423.984375 375.269531 422.585938 375.851562 C 421.1875 376.429688 419.761719 376.9375 418.3125 377.378906 C 416.863281 377.820312 415.394531 378.1875 413.910156 378.480469 C 412.425781 378.777344 410.929688 379 409.421875 379.148438 C 407.914062 379.296875 406.402344 379.371094 404.890625 379.371094 C 403.375 379.367188 401.867188 379.292969 400.359375 379.144531 C 398.851562 378.992188 397.355469 378.769531 395.871094 378.472656 C 394.386719 378.175781 392.921875 377.808594 391.472656 377.367188 C 390.023438 376.925781 388.601562 376.414062 387.203125 375.835938 C 385.804688 375.253906 384.4375 374.609375 383.101562 373.894531 C 381.769531 373.179688 380.472656 372.402344 379.210938 371.558594 C 377.953125 370.71875 376.738281 369.816406 375.570312 368.855469 C 374.398438 367.894531 373.28125 366.878906 372.207031 365.804688 C 371.136719 364.734375 370.121094 363.613281 369.164062 362.445312 C 368.203125 361.273438 367.300781 360.058594 366.460938 358.800781 C 365.617188 357.539062 364.839844 356.242188 364.125 354.90625 C 363.410156 353.574219 362.765625 352.207031 362.183594 350.804688 C 361.605469 349.40625 361.09375 347.984375 360.652344 346.535156 C 360.210938 345.085938 359.84375 343.617188 359.546875 342.132812 C 359.25 340.648438 359.027344 339.152344 358.878906 337.644531 C 358.726562 336.136719 358.652344 334.625 358.648438 333.113281 Z M 358.648438 333.113281 " fill-opacity="1" fill-rule="nonzero"/></svg>