<svg xmlns="http://www.w3.org/2000/svg" xmlns:xlink="http://www.w3.org/1999/xlink" width="1080" zoomAndPan="magnify" viewBox="0 0 810 809.999993" height="1080" preserveAspectRatio="xMidYMid meet" version="1.0"><defs><clipPath id="8255765234"><path d="M 272 140.273438 L 562 140.273438 L 562 310 L 272 310 Z M 272 140.273438 " clip-rule="nonzero"/></clipPath><clipPath id="7c9ab10cad"><path d="M 344 573 L 562 573 L 562 669.773438 L 344 669.773438 Z M 344 573 " clip-rule="nonzero"/></clipPath><clipPath id="cd8e771b06"><path d="M 140.273438 176 L 381 176 L 381 418 L 140.273438 418 Z M 140.273438 176 " clip-rule="nonzero"/></clipPath><clipPath id="abd25a577d"><path d="M 453 332 L 669.773438 332 L 669.773438 550 L 453 550 Z M 453 332 " clip-rule="nonzero"/></clipPath><clipPath id="34ea74c0e0"><path d="M 176 477 L 369 477 L 369 669.773438 L 176 669.773438 Z M 176 477 " clip-rule="nonzero"/></clipPath></defs><path fill="#231f20" d="M 260.613281 465.191406 C 259.824219 465.191406 259.039062 465.117188 258.265625 464.960938 C 257.492188 464.808594 256.738281 464.578125 256.007812 464.277344 C 255.277344 463.972656 254.585938 463.601562 253.925781 463.164062 C 253.269531 462.726562 252.664062 462.226562 252.105469 461.667969 C 251.542969 461.109375 251.046875 460.5 250.605469 459.84375 C 250.167969 459.1875 249.796875 458.492188 249.496094 457.761719 C 249.191406 457.035156 248.964844 456.28125 248.808594 455.507812 C 248.65625 454.730469 248.578125 453.949219 248.578125 453.160156 L 248.578125 441.125 C 248.578125 440.335938 248.65625 439.550781 248.808594 438.777344 C 248.964844 438 249.191406 437.25 249.496094 436.519531 C 249.796875 435.789062 250.167969 435.09375 250.605469 434.4375 C 251.046875 433.78125 251.542969 433.171875 252.105469 432.613281 C 252.664062 432.054688 253.269531 431.558594 253.925781 431.117188 C 254.585938 430.679688 255.277344 430.308594 256.007812 430.007812 C 256.738281 429.703125 257.492188 429.476562 258.265625 429.320312 C 259.039062 429.167969 259.824219 429.089844 260.613281 429.089844 C 261.402344 429.089844 262.1875 429.167969 262.960938 429.320312 C 263.734375 429.476562 264.488281 429.703125 265.21875 430.007812 C 265.949219 430.308594 266.640625 430.679688 267.296875 431.117188 C 267.957031 431.558594 268.5625 432.054688 269.121094 432.613281 C 269.679688 433.171875 270.179688 433.78125 270.617188 434.4375 C 271.058594 435.09375 271.429688 435.789062 271.730469 436.519531 C 272.035156 437.25 272.261719 438 272.414062 438.777344 C 272.570312 439.550781 272.648438 440.335938 272.648438 441.125 L 272.648438 453.160156 C 272.648438 453.949219 272.570312 454.730469 272.414062 455.507812 C 272.261719 456.28125 272.035156 457.035156 271.730469 457.761719 C 271.429688 458.492188 271.058594 459.1875 270.617188 459.84375 C 270.179688 460.5 269.679688 461.109375 269.121094 461.667969 C 268.5625 462.226562 267.957031 462.726562 267.296875 463.164062 C 266.640625 463.601562 265.949219 463.972656 265.21875 464.277344 C 264.488281 464.578125 263.734375 464.808594 262.960938 464.960938 C 262.1875 465.117188 261.402344 465.191406 260.613281 465.191406 Z M 260.613281 465.191406 " fill-opacity="1" fill-rule="nonzero"/><g clip-path="url(#8255765234)"><path fill="#231f20" d="M 549.429688 309.472656 C 548.640625 309.472656 547.859375 309.394531 547.082031 309.238281 C 546.308594 309.085938 545.554688 308.859375 544.824219 308.554688 C 544.097656 308.253906 543.402344 307.882812 542.746094 307.441406 C 542.089844 307.003906 541.480469 306.503906 540.921875 305.945312 C 540.363281 305.386719 539.863281 304.78125 539.425781 304.125 C 538.984375 303.464844 538.617188 302.773438 538.3125 302.042969 C 538.011719 301.3125 537.78125 300.558594 537.628906 299.785156 C 537.472656 299.011719 537.398438 298.226562 537.398438 297.4375 L 537.398438 176.375 C 537.398438 175.585938 537.320312 174.800781 537.164062 174.027344 C 537.011719 173.25 536.785156 172.5 536.480469 171.769531 C 536.179688 171.039062 535.808594 170.34375 535.367188 169.6875 C 534.929688 169.03125 534.429688 168.421875 533.871094 167.863281 C 533.3125 167.304688 532.707031 166.808594 532.046875 166.367188 C 531.390625 165.929688 530.699219 165.558594 529.96875 165.257812 C 529.238281 164.953125 528.484375 164.726562 527.710938 164.570312 C 526.9375 164.417969 526.152344 164.339844 525.363281 164.339844 L 284.679688 164.339844 C 283.890625 164.339844 283.109375 164.261719 282.332031 164.109375 C 281.558594 163.953125 280.804688 163.726562 280.074219 163.425781 C 279.347656 163.121094 278.652344 162.75 277.996094 162.3125 C 277.339844 161.875 276.730469 161.375 276.171875 160.816406 C 275.613281 160.257812 275.113281 159.648438 274.675781 158.992188 C 274.234375 158.335938 273.867188 157.640625 273.5625 156.910156 C 273.261719 156.179688 273.03125 155.429688 272.878906 154.652344 C 272.722656 153.878906 272.648438 153.097656 272.648438 152.304688 C 272.648438 151.515625 272.722656 150.734375 272.878906 149.957031 C 273.03125 149.183594 273.261719 148.429688 273.5625 147.699219 C 273.867188 146.972656 274.234375 146.277344 274.675781 145.621094 C 275.113281 144.964844 275.613281 144.355469 276.171875 143.796875 C 276.730469 143.238281 277.339844 142.738281 277.996094 142.300781 C 278.652344 141.859375 279.347656 141.492188 280.074219 141.1875 C 280.804688 140.886719 281.558594 140.65625 282.332031 140.503906 C 283.109375 140.347656 283.890625 140.273438 284.679688 140.273438 L 525.363281 140.273438 C 526.546875 140.273438 527.726562 140.328125 528.902344 140.445312 C 530.078125 140.5625 531.246094 140.734375 532.40625 140.964844 C 533.566406 141.195312 534.710938 141.484375 535.84375 141.828125 C 536.972656 142.167969 538.085938 142.566406 539.179688 143.019531 C 540.269531 143.472656 541.339844 143.976562 542.382812 144.535156 C 543.425781 145.09375 544.4375 145.699219 545.421875 146.355469 C 546.402344 147.011719 547.351562 147.71875 548.265625 148.46875 C 549.179688 149.21875 550.054688 150.011719 550.890625 150.847656 C 551.726562 151.683594 552.519531 152.558594 553.269531 153.472656 C 554.019531 154.386719 554.722656 155.332031 555.378906 156.316406 C 556.039062 157.300781 556.644531 158.3125 557.203125 159.355469 C 557.757812 160.398438 558.265625 161.464844 558.71875 162.558594 C 559.167969 163.652344 559.566406 164.761719 559.910156 165.894531 C 560.253906 167.027344 560.539062 168.171875 560.773438 169.332031 C 561.003906 170.492188 561.175781 171.660156 561.292969 172.835938 C 561.40625 174.011719 561.464844 175.191406 561.464844 176.375 L 561.464844 297.4375 C 561.464844 298.226562 561.386719 299.011719 561.234375 299.785156 C 561.078125 300.558594 560.851562 301.3125 560.550781 302.042969 C 560.246094 302.773438 559.875 303.464844 559.4375 304.125 C 559 304.78125 558.5 305.386719 557.941406 305.945312 C 557.382812 306.503906 556.773438 307.003906 556.117188 307.441406 C 555.460938 307.882812 554.765625 308.253906 554.035156 308.554688 C 553.304688 308.859375 552.554688 309.085938 551.777344 309.238281 C 551.003906 309.394531 550.222656 309.472656 549.429688 309.472656 Z M 549.429688 309.472656 " fill-opacity="1" fill-rule="nonzero"/></g><path fill="#231f20" d="M 453.160156 200.441406 L 368.917969 200.441406 C 368.128906 200.441406 367.347656 200.367188 366.570312 200.210938 C 365.796875 200.058594 365.042969 199.828125 364.316406 199.527344 C 363.585938 199.222656 362.890625 198.851562 362.234375 198.414062 C 361.578125 197.976562 360.96875 197.476562 360.410156 196.917969 C 359.851562 196.359375 359.351562 195.75 358.914062 195.09375 C 358.476562 194.4375 358.105469 193.742188 357.800781 193.015625 C 357.5 192.285156 357.269531 191.53125 357.117188 190.757812 C 356.960938 189.980469 356.886719 189.199219 356.886719 188.410156 C 356.886719 187.617188 356.960938 186.835938 357.117188 186.0625 C 357.269531 185.285156 357.5 184.535156 357.800781 183.804688 C 358.105469 183.074219 358.476562 182.378906 358.914062 181.722656 C 359.351562 181.066406 359.851562 180.457031 360.410156 179.898438 C 360.96875 179.339844 361.578125 178.839844 362.234375 178.402344 C 362.890625 177.964844 363.585938 177.59375 364.316406 177.289062 C 365.042969 176.988281 365.796875 176.757812 366.570312 176.605469 C 367.347656 176.453125 368.128906 176.375 368.917969 176.375 L 453.160156 176.375 C 453.949219 176.375 454.730469 176.453125 455.507812 176.605469 C 456.28125 176.757812 457.035156 176.988281 457.761719 177.289062 C 458.492188 177.59375 459.1875 177.964844 459.84375 178.402344 C 460.5 178.839844 461.109375 179.339844 461.667969 179.898438 C 462.226562 180.457031 462.726562 181.066406 463.164062 181.722656 C 463.601562 182.378906 463.972656 183.074219 464.277344 183.804688 C 464.578125 184.535156 464.808594 185.285156 464.960938 186.0625 C 465.117188 186.835938 465.191406 187.617188 465.191406 188.410156 C 465.191406 189.199219 465.117188 189.980469 464.960938 190.757812 C 464.808594 191.53125 464.578125 192.285156 464.277344 193.015625 C 463.972656 193.742188 463.601562 194.4375 463.164062 195.09375 C 462.726562 195.75 462.226562 196.359375 461.667969 196.917969 C 461.109375 197.476562 460.5 197.976562 459.84375 198.414062 C 459.1875 198.851562 458.492188 199.222656 457.761719 199.527344 C 457.035156 199.828125 456.28125 200.058594 455.507812 200.210938 C 454.730469 200.367188 453.949219 200.441406 453.160156 200.441406 Z M 453.160156 200.441406 " fill-opacity="1" fill-rule="nonzero"/><path fill="#231f20" d="M 549.429688 236.542969 L 392.988281 236.542969 C 392.199219 236.542969 391.414062 236.46875 390.640625 236.3125 C 389.867188 236.160156 389.113281 235.929688 388.382812 235.628906 C 387.652344 235.328125 386.960938 234.957031 386.300781 234.515625 C 385.644531 234.078125 385.039062 233.578125 384.480469 233.019531 C 383.917969 232.460938 383.421875 231.851562 382.980469 231.195312 C 382.542969 230.539062 382.171875 229.847656 381.871094 229.117188 C 381.566406 228.386719 381.339844 227.632812 381.183594 226.859375 C 381.03125 226.082031 380.953125 225.300781 380.953125 224.511719 C 380.953125 223.71875 381.03125 222.9375 381.183594 222.164062 C 381.339844 221.386719 381.566406 220.636719 381.871094 219.90625 C 382.171875 219.175781 382.542969 218.480469 382.980469 217.824219 C 383.421875 217.167969 383.917969 216.558594 384.480469 216 C 385.039062 215.441406 385.644531 214.945312 386.300781 214.503906 C 386.960938 214.066406 387.652344 213.695312 388.382812 213.394531 C 389.113281 213.089844 389.867188 212.863281 390.640625 212.707031 C 391.414062 212.554688 392.199219 212.476562 392.988281 212.476562 L 549.429688 212.476562 C 550.222656 212.476562 551.003906 212.554688 551.777344 212.707031 C 552.554688 212.863281 553.304688 213.089844 554.035156 213.394531 C 554.765625 213.695312 555.460938 214.066406 556.117188 214.503906 C 556.773438 214.945312 557.382812 215.441406 557.941406 216 C 558.5 216.558594 559 217.167969 559.4375 217.824219 C 559.875 218.480469 560.246094 219.175781 560.550781 219.90625 C 560.851562 220.636719 561.078125 221.386719 561.234375 222.164062 C 561.386719 222.9375 561.464844 223.71875 561.464844 224.511719 C 561.464844 225.300781 561.386719 226.082031 561.234375 226.859375 C 561.078125 227.632812 560.851562 228.386719 560.550781 229.117188 C 560.246094 229.847656 559.875 230.539062 559.4375 231.195312 C 559 231.851562 558.5 232.460938 557.941406 233.019531 C 557.382812 233.578125 556.773438 234.078125 556.117188 234.515625 C 555.460938 234.957031 554.765625 235.328125 554.035156 235.628906 C 553.304688 235.929688 552.554688 236.160156 551.777344 236.3125 C 551.003906 236.46875 550.222656 236.542969 549.429688 236.542969 Z M 549.429688 236.542969 " fill-opacity="1" fill-rule="nonzero"/><g clip-path="url(#7c9ab10cad)"><path fill="#231f20" d="M 525.363281 669.773438 L 356.886719 669.773438 C 356.09375 669.773438 355.3125 669.695312 354.539062 669.539062 C 353.761719 669.386719 353.011719 669.160156 352.28125 668.855469 C 351.550781 668.554688 350.855469 668.183594 350.199219 667.742188 C 349.542969 667.304688 348.933594 666.804688 348.375 666.246094 C 347.816406 665.6875 347.320312 665.082031 346.878906 664.421875 C 346.441406 663.765625 346.070312 663.074219 345.769531 662.34375 C 345.464844 661.613281 345.238281 660.859375 345.082031 660.085938 C 344.929688 659.3125 344.851562 658.527344 344.851562 657.738281 C 344.851562 656.949219 344.929688 656.164062 345.082031 655.390625 C 345.238281 654.617188 345.464844 653.863281 345.769531 653.132812 C 346.070312 652.402344 346.441406 651.710938 346.878906 651.050781 C 347.320312 650.394531 347.816406 649.789062 348.375 649.230469 C 348.933594 648.667969 349.542969 648.171875 350.199219 647.730469 C 350.855469 647.292969 351.550781 646.921875 352.28125 646.621094 C 353.011719 646.316406 353.761719 646.089844 354.539062 645.933594 C 355.3125 645.78125 356.09375 645.703125 356.886719 645.703125 L 525.363281 645.703125 C 526.152344 645.703125 526.9375 645.625 527.710938 645.472656 C 528.484375 645.320312 529.238281 645.089844 529.96875 644.789062 C 530.699219 644.484375 531.390625 644.113281 532.046875 643.675781 C 532.707031 643.238281 533.3125 642.738281 533.871094 642.179688 C 534.429688 641.621094 534.929688 641.011719 535.367188 640.355469 C 535.808594 639.699219 536.179688 639.003906 536.480469 638.273438 C 536.785156 637.546875 537.011719 636.792969 537.164062 636.015625 C 537.320312 635.242188 537.398438 634.460938 537.398438 633.667969 L 537.398438 597.566406 L 392.988281 597.566406 C 392.199219 597.566406 391.414062 597.492188 390.640625 597.335938 C 389.867188 597.183594 389.113281 596.953125 388.382812 596.652344 C 387.652344 596.347656 386.960938 595.976562 386.300781 595.539062 C 385.644531 595.101562 385.039062 594.601562 384.480469 594.042969 C 383.917969 593.484375 383.421875 592.875 382.980469 592.21875 C 382.542969 591.5625 382.171875 590.867188 381.871094 590.140625 C 381.566406 589.410156 381.339844 588.65625 381.183594 587.882812 C 381.03125 587.105469 380.953125 586.324219 380.953125 585.535156 C 380.953125 584.742188 381.03125 583.960938 381.183594 583.1875 C 381.339844 582.410156 381.566406 581.660156 381.871094 580.929688 C 382.171875 580.199219 382.542969 579.503906 382.980469 578.847656 C 383.421875 578.191406 383.917969 577.582031 384.480469 577.023438 C 385.039062 576.464844 385.644531 575.964844 386.300781 575.527344 C 386.960938 575.089844 387.652344 574.71875 388.382812 574.414062 C 389.113281 574.113281 389.867188 573.886719 390.640625 573.730469 C 391.414062 573.578125 392.199219 573.5 392.988281 573.5 L 549.429688 573.5 C 550.222656 573.5 551.003906 573.578125 551.777344 573.730469 C 552.554688 573.886719 553.304688 574.113281 554.035156 574.414062 C 554.765625 574.71875 555.460938 575.089844 556.117188 575.527344 C 556.773438 575.964844 557.382812 576.464844 557.941406 577.023438 C 558.5 577.582031 559 578.191406 559.4375 578.847656 C 559.875 579.503906 560.246094 580.199219 560.550781 580.929688 C 560.851562 581.660156 561.078125 582.410156 561.234375 583.1875 C 561.386719 583.960938 561.464844 584.742188 561.464844 585.535156 L 561.464844 633.667969 C 561.464844 634.851562 561.40625 636.03125 561.292969 637.207031 C 561.175781 638.386719 561.003906 639.554688 560.773438 640.714844 C 560.539062 641.871094 560.253906 643.019531 559.910156 644.148438 C 559.566406 645.28125 559.167969 646.394531 558.71875 647.484375 C 558.265625 648.578125 557.757812 649.644531 557.203125 650.6875 C 556.644531 651.730469 556.039062 652.742188 555.382812 653.726562 C 554.722656 654.710938 554.019531 655.660156 553.269531 656.574219 C 552.519531 657.488281 551.726562 658.363281 550.890625 659.199219 C 550.054688 660.035156 549.179688 660.828125 548.265625 661.578125 C 547.351562 662.328125 546.402344 663.03125 545.421875 663.6875 C 544.4375 664.34375 543.425781 664.953125 542.382812 665.507812 C 541.339844 666.066406 540.269531 666.570312 539.179688 667.023438 C 538.085938 667.476562 536.972656 667.875 535.84375 668.21875 C 534.710938 668.5625 533.566406 668.847656 532.40625 669.078125 C 531.246094 669.308594 530.078125 669.480469 528.902344 669.597656 C 527.726562 669.714844 526.546875 669.773438 525.363281 669.773438 Z M 525.363281 669.773438 " fill-opacity="1" fill-rule="nonzero"/></g><g clip-path="url(#cd8e771b06)"><path fill="#231f20" d="M 260.613281 417.054688 C 258.644531 417.054688 256.675781 417.007812 254.707031 416.910156 C 252.742188 416.816406 250.777344 416.667969 248.816406 416.476562 C 246.859375 416.285156 244.902344 416.042969 242.957031 415.753906 C 241.007812 415.464844 239.066406 415.128906 237.136719 414.742188 C 235.203125 414.359375 233.28125 413.929688 231.371094 413.449219 C 229.460938 412.972656 227.566406 412.445312 225.679688 411.875 C 223.796875 411.300781 221.925781 410.683594 220.070312 410.023438 C 218.21875 409.359375 216.378906 408.648438 214.558594 407.894531 C 212.742188 407.140625 210.941406 406.34375 209.160156 405.503906 C 207.378906 404.660156 205.621094 403.773438 203.882812 402.847656 C 202.148438 401.917969 200.433594 400.949219 198.746094 399.933594 C 197.054688 398.921875 195.394531 397.871094 193.753906 396.773438 C 192.117188 395.679688 190.507812 394.546875 188.925781 393.375 C 187.34375 392.199219 185.792969 390.988281 184.269531 389.738281 C 182.746094 388.492188 181.257812 387.203125 179.796875 385.882812 C 178.335938 384.558594 176.910156 383.203125 175.519531 381.808594 C 174.125 380.417969 172.769531 378.992188 171.445312 377.53125 C 170.125 376.070312 168.835938 374.582031 167.589844 373.058594 C 166.339844 371.535156 165.128906 369.984375 163.953125 368.402344 C 162.78125 366.820312 161.648438 365.210938 160.554688 363.574219 C 159.457031 361.933594 158.40625 360.273438 157.394531 358.582031 C 156.378906 356.894531 155.410156 355.179688 154.480469 353.445312 C 153.554688 351.707031 152.667969 349.949219 151.824219 348.167969 C 150.984375 346.386719 150.1875 344.585938 149.433594 342.769531 C 148.679688 340.949219 147.96875 339.109375 147.308594 337.257812 C 146.644531 335.402344 146.027344 333.53125 145.453125 331.648438 C 144.882812 329.765625 144.355469 327.867188 143.878906 325.957031 C 143.398438 324.046875 142.96875 322.125 142.585938 320.191406 C 142.199219 318.261719 141.863281 316.320312 141.574219 314.371094 C 141.285156 312.425781 141.042969 310.472656 140.851562 308.511719 C 140.660156 306.550781 140.511719 304.585938 140.417969 302.621094 C 140.320312 300.652344 140.273438 298.683594 140.273438 296.714844 C 140.273438 294.746094 140.320312 292.777344 140.417969 290.808594 C 140.511719 288.84375 140.660156 286.878906 140.851562 284.917969 C 141.042969 282.960938 141.285156 281.003906 141.574219 279.058594 C 141.863281 277.109375 142.199219 275.167969 142.585938 273.238281 C 142.96875 271.304688 143.398438 269.386719 143.878906 267.476562 C 144.355469 265.5625 144.882812 263.667969 145.453125 261.78125 C 146.027344 259.898438 146.644531 258.027344 147.308594 256.171875 C 147.96875 254.320312 148.679688 252.480469 149.433594 250.664062 C 150.1875 248.84375 150.984375 247.042969 151.824219 245.261719 C 152.667969 243.484375 153.554688 241.722656 154.480469 239.988281 C 155.410156 238.25 156.378906 236.535156 157.394531 234.847656 C 158.40625 233.160156 159.457031 231.496094 160.554688 229.859375 C 161.648438 228.21875 162.78125 226.609375 163.953125 225.027344 C 165.128906 223.445312 166.339844 221.894531 167.589844 220.371094 C 168.835938 218.847656 170.125 217.359375 171.445312 215.898438 C 172.769531 214.441406 174.125 213.015625 175.519531 211.621094 C 176.910156 210.230469 178.335938 208.871094 179.796875 207.546875 C 181.257812 206.226562 182.746094 204.941406 184.269531 203.691406 C 185.792969 202.441406 187.34375 201.230469 188.925781 200.054688 C 190.507812 198.882812 192.117188 197.75 193.753906 196.65625 C 195.394531 195.5625 197.054688 194.507812 198.746094 193.496094 C 200.433594 192.484375 202.148438 191.511719 203.882812 190.585938 C 205.621094 189.65625 207.378906 188.769531 209.160156 187.929688 C 210.941406 187.085938 212.742188 186.289062 214.558594 185.535156 C 216.378906 184.78125 218.21875 184.074219 220.070312 183.410156 C 221.925781 182.746094 223.796875 182.128906 225.679688 181.554688 C 227.566406 180.984375 229.460938 180.460938 231.371094 179.980469 C 233.28125 179.503906 235.203125 179.070312 237.136719 178.6875 C 239.066406 178.300781 241.007812 177.964844 242.957031 177.675781 C 244.902344 177.386719 246.859375 177.148438 248.816406 176.953125 C 250.777344 176.761719 252.742188 176.617188 254.707031 176.519531 C 256.675781 176.421875 258.644531 176.375 260.613281 176.375 C 262.582031 176.375 264.550781 176.421875 266.519531 176.519531 C 268.484375 176.617188 270.449219 176.761719 272.410156 176.953125 C 274.367188 177.148438 276.324219 177.386719 278.269531 177.675781 C 280.21875 177.964844 282.160156 178.300781 284.089844 178.6875 C 286.023438 179.070312 287.941406 179.503906 289.851562 179.980469 C 291.765625 180.460938 293.660156 180.984375 295.546875 181.554688 C 297.429688 182.128906 299.300781 182.746094 301.15625 183.410156 C 303.007812 184.074219 304.847656 184.78125 306.664062 185.535156 C 308.484375 186.289062 310.285156 187.085938 312.066406 187.929688 C 313.84375 188.769531 315.605469 189.65625 317.339844 190.585938 C 319.078125 191.511719 320.792969 192.484375 322.480469 193.496094 C 324.167969 194.507812 325.832031 195.5625 327.472656 196.65625 C 329.109375 197.75 330.71875 198.882812 332.300781 200.054688 C 333.882812 201.230469 335.433594 202.441406 336.957031 203.691406 C 338.480469 204.941406 339.96875 206.226562 341.429688 207.546875 C 342.886719 208.871094 344.3125 210.230469 345.707031 211.621094 C 347.097656 213.015625 348.457031 214.441406 349.78125 215.898438 C 351.101562 217.359375 352.386719 218.847656 353.636719 220.371094 C 354.886719 221.894531 356.097656 223.445312 357.273438 225.027344 C 358.445312 226.609375 359.578125 228.21875 360.671875 229.859375 C 361.765625 231.496094 362.820312 233.160156 363.832031 234.847656 C 364.84375 236.535156 365.816406 238.25 366.746094 239.988281 C 367.671875 241.722656 368.558594 243.484375 369.398438 245.261719 C 370.242188 247.042969 371.039062 248.84375 371.792969 250.664062 C 372.546875 252.480469 373.253906 254.320312 373.917969 256.171875 C 374.582031 258.027344 375.199219 259.898438 375.773438 261.78125 C 376.34375 263.667969 376.867188 265.5625 377.347656 267.476562 C 377.824219 269.386719 378.257812 271.304688 378.640625 273.238281 C 379.027344 275.167969 379.363281 277.109375 379.652344 279.058594 C 379.941406 281.003906 380.179688 282.960938 380.375 284.917969 C 380.566406 286.878906 380.710938 288.84375 380.808594 290.808594 C 380.90625 292.777344 380.953125 294.746094 380.953125 296.714844 C 380.953125 298.683594 380.90625 300.652344 380.808594 302.621094 C 380.710938 304.585938 380.566406 306.550781 380.375 308.511719 C 380.179688 310.472656 379.941406 312.425781 379.652344 314.371094 C 379.363281 316.320312 379.027344 318.261719 378.640625 320.191406 C 378.257812 322.125 377.824219 324.046875 377.347656 325.957031 C 376.867188 327.867188 376.34375 329.765625 375.773438 331.648438 C 375.199219 333.53125 374.582031 335.402344 373.917969 337.257812 C 373.253906 339.109375 372.546875 340.949219 371.792969 342.769531 C 371.039062 344.585938 370.242188 346.386719 369.398438 348.167969 C 368.558594 349.949219 367.671875 351.707031 366.746094 353.445312 C 365.816406 355.179688 364.84375 356.894531 363.832031 358.582031 C 362.820312 360.273438 361.765625 361.933594 360.671875 363.574219 C 359.578125 365.210938 358.445312 366.820312 357.273438 368.402344 C 356.097656 369.984375 354.886719 371.535156 353.636719 373.058594 C 352.386719 374.582031 351.101562 376.070312 349.78125 377.53125 C 348.457031 378.992188 347.097656 380.417969 345.707031 381.808594 C 344.3125 383.203125 342.886719 384.558594 341.429688 385.882812 C 339.96875 387.203125 338.480469 388.492188 336.957031 389.738281 C 335.433594 390.988281 333.882812 392.199219 332.300781 393.375 C 330.71875 394.546875 329.109375 395.679688 327.472656 396.773438 C 325.832031 397.871094 324.167969 398.921875 322.480469 399.933594 C 320.792969 400.949219 319.078125 401.917969 317.339844 402.847656 C 315.605469 403.773438 313.84375 404.660156 312.066406 405.503906 C 310.285156 406.34375 308.484375 407.140625 306.664062 407.894531 C 304.847656 408.648438 303.007812 409.359375 301.15625 410.023438 C 299.300781 410.683594 297.429688 411.300781 295.546875 411.875 C 293.660156 412.445312 291.765625 412.972656 289.851562 413.449219 C 287.941406 413.929688 286.023438 414.359375 284.089844 414.742188 C 282.160156 415.128906 280.21875 415.464844 278.269531 415.753906 C 276.324219 416.042969 274.367188 416.285156 272.410156 416.476562 C 270.449219 416.667969 268.484375 416.816406 266.519531 416.910156 C 264.550781 417.007812 262.582031 417.054688 260.613281 417.054688 Z M 260.613281 200.441406 C 259.039062 200.441406 257.460938 200.480469 255.890625 200.558594 C 254.316406 200.636719 252.746094 200.75 251.175781 200.90625 C 249.609375 201.0625 248.046875 201.253906 246.488281 201.484375 C 244.929688 201.714844 243.375 201.984375 241.832031 202.292969 C 240.285156 202.601562 238.75 202.945312 237.21875 203.328125 C 235.691406 203.710938 234.175781 204.128906 232.667969 204.589844 C 231.160156 205.046875 229.664062 205.539062 228.179688 206.070312 C 226.695312 206.601562 225.226562 207.167969 223.769531 207.769531 C 222.316406 208.375 220.875 209.011719 219.449219 209.6875 C 218.027344 210.359375 216.621094 211.066406 215.230469 211.808594 C 213.839844 212.554688 212.46875 213.328125 211.117188 214.140625 C 209.765625 214.949219 208.4375 215.792969 207.125 216.667969 C 205.816406 217.542969 204.527344 218.449219 203.261719 219.386719 C 201.996094 220.328125 200.757812 221.296875 199.539062 222.296875 C 198.320312 223.296875 197.128906 224.324219 195.960938 225.382812 C 194.792969 226.441406 193.652344 227.527344 192.539062 228.640625 C 191.421875 229.753906 190.335938 230.894531 189.28125 232.0625 C 188.222656 233.230469 187.191406 234.421875 186.191406 235.640625 C 185.195312 236.859375 184.222656 238.101562 183.285156 239.367188 C 182.347656 240.632812 181.441406 241.917969 180.566406 243.230469 C 179.691406 244.539062 178.847656 245.871094 178.035156 247.222656 C 177.226562 248.574219 176.449219 249.941406 175.707031 251.332031 C 174.964844 252.722656 174.257812 254.128906 173.582031 255.554688 C 172.910156 256.976562 172.273438 258.417969 171.667969 259.875 C 171.066406 261.328125 170.5 262.796875 169.96875 264.28125 C 169.4375 265.765625 168.941406 267.261719 168.484375 268.769531 C 168.027344 270.277344 167.609375 271.792969 167.226562 273.324219 C 166.84375 274.851562 166.496094 276.386719 166.191406 277.933594 C 165.882812 279.480469 165.613281 281.03125 165.382812 282.589844 C 165.152344 284.148438 164.957031 285.710938 164.804688 287.277344 C 164.648438 288.847656 164.535156 290.417969 164.457031 291.992188 C 164.378906 293.566406 164.339844 295.140625 164.339844 296.714844 C 164.339844 298.289062 164.378906 299.867188 164.457031 301.4375 C 164.535156 303.011719 164.648438 304.582031 164.804688 306.152344 C 164.957031 307.71875 165.152344 309.28125 165.382812 310.839844 C 165.613281 312.398438 165.882812 313.953125 166.191406 315.496094 C 166.496094 317.042969 166.84375 318.578125 167.226562 320.109375 C 167.609375 321.636719 168.027344 323.152344 168.484375 324.660156 C 168.941406 326.167969 169.4375 327.664062 169.96875 329.148438 C 170.5 330.632812 171.066406 332.101562 171.667969 333.558594 C 172.273438 335.011719 172.910156 336.453125 173.582031 337.878906 C 174.257812 339.300781 174.964844 340.707031 175.707031 342.097656 C 176.449219 343.488281 177.226562 344.859375 178.035156 346.210938 C 178.847656 347.5625 179.691406 348.890625 180.566406 350.203125 C 181.441406 351.511719 182.347656 352.800781 183.285156 354.066406 C 184.222656 355.332031 185.195312 356.570312 186.191406 357.789062 C 187.191406 359.007812 188.222656 360.199219 189.28125 361.367188 C 190.335938 362.535156 191.421875 363.675781 192.539062 364.789062 C 193.652344 365.90625 194.792969 366.992188 195.960938 368.046875 C 197.128906 369.105469 198.320312 370.136719 199.539062 371.136719 C 200.757812 372.132812 201.996094 373.105469 203.261719 374.042969 C 204.527344 374.980469 205.816406 375.886719 207.125 376.761719 C 208.4375 377.636719 209.765625 378.480469 211.117188 379.292969 C 212.46875 380.101562 213.839844 380.878906 215.230469 381.621094 C 216.621094 382.363281 218.027344 383.070312 219.449219 383.746094 C 220.875 384.417969 222.316406 385.058594 223.769531 385.660156 C 225.226562 386.261719 226.695312 386.828125 228.179688 387.359375 C 229.664062 387.890625 231.160156 388.386719 232.667969 388.84375 C 234.175781 389.300781 235.691406 389.71875 237.21875 390.101562 C 238.75 390.484375 240.285156 390.832031 241.832031 391.136719 C 243.375 391.445312 244.929688 391.714844 246.488281 391.945312 C 248.046875 392.175781 249.609375 392.371094 251.175781 392.523438 C 252.746094 392.679688 254.316406 392.792969 255.890625 392.871094 C 257.460938 392.949219 259.039062 392.988281 260.613281 392.988281 C 262.1875 392.988281 263.761719 392.949219 265.335938 392.871094 C 266.910156 392.792969 268.480469 392.679688 270.050781 392.523438 C 271.617188 392.371094 273.179688 392.175781 274.738281 391.945312 C 276.296875 391.714844 277.847656 391.445312 279.394531 391.136719 C 280.941406 390.832031 282.476562 390.484375 284.003906 390.101562 C 285.535156 389.71875 287.050781 389.300781 288.558594 388.84375 C 290.066406 388.386719 291.5625 387.890625 293.046875 387.359375 C 294.53125 386.828125 296 386.261719 297.453125 385.660156 C 298.910156 385.058594 300.351562 384.417969 301.773438 383.746094 C 303.199219 383.070312 304.605469 382.363281 305.996094 381.621094 C 307.386719 380.878906 308.753906 380.101562 310.105469 379.292969 C 311.457031 378.480469 312.789062 377.636719 314.097656 376.761719 C 315.410156 375.886719 316.695312 374.980469 317.960938 374.042969 C 319.226562 373.105469 320.46875 372.132812 321.6875 371.136719 C 322.90625 370.136719 324.097656 369.105469 325.265625 368.046875 C 326.433594 366.992188 327.574219 365.90625 328.6875 364.789062 C 329.800781 363.675781 330.886719 362.535156 331.945312 361.367188 C 333.003906 360.199219 334.035156 359.007812 335.03125 357.789062 C 336.03125 356.570312 337 355.332031 337.941406 354.066406 C 338.878906 352.800781 339.785156 351.511719 340.660156 350.203125 C 341.535156 348.890625 342.378906 347.5625 343.1875 346.210938 C 344 344.859375 344.773438 343.488281 345.519531 342.097656 C 346.261719 340.707031 346.96875 339.300781 347.640625 337.878906 C 348.316406 336.453125 348.953125 335.011719 349.558594 333.558594 C 350.160156 332.101562 350.726562 330.632812 351.257812 329.148438 C 351.789062 327.664062 352.28125 326.167969 352.738281 324.660156 C 353.199219 323.152344 353.617188 321.636719 354 320.109375 C 354.382812 318.578125 354.726562 317.042969 355.035156 315.496094 C 355.34375 313.953125 355.613281 312.398438 355.84375 310.839844 C 356.074219 309.28125 356.269531 307.71875 356.421875 306.152344 C 356.578125 304.582031 356.691406 303.011719 356.769531 301.4375 C 356.847656 299.867188 356.886719 298.289062 356.886719 296.714844 C 356.886719 295.140625 356.847656 293.566406 356.769531 291.992188 C 356.691406 290.417969 356.578125 288.847656 356.421875 287.277344 C 356.269531 285.710938 356.074219 284.148438 355.84375 282.589844 C 355.613281 281.03125 355.34375 279.480469 355.035156 277.933594 C 354.726562 276.386719 354.382812 274.851562 354 273.324219 C 353.617188 271.792969 353.199219 270.277344 352.738281 268.769531 C 352.28125 267.261719 351.789062 265.765625 351.257812 264.28125 C 350.726562 262.796875 350.160156 261.328125 349.558594 259.875 C 348.953125 258.417969 348.316406 256.976562 347.640625 255.554688 C 346.96875 254.128906 346.261719 252.722656 345.519531 251.332031 C 344.773438 249.941406 344 248.574219 343.1875 247.222656 C 342.378906 245.871094 341.535156 244.539062 340.660156 243.230469 C 339.785156 241.917969 338.878906 240.632812 337.941406 239.367188 C 337 238.101562 336.03125 236.859375 335.03125 235.640625 C 334.035156 234.421875 333.003906 233.230469 331.945312 232.0625 C 330.886719 230.894531 329.800781 229.753906 328.6875 228.640625 C 327.574219 227.527344 326.433594 226.441406 325.265625 225.382812 C 324.097656 224.324219 322.90625 223.296875 321.6875 222.296875 C 320.46875 221.296875 319.226562 220.328125 317.960938 219.386719 C 316.695312 218.449219 315.410156 217.542969 314.097656 216.667969 C 312.789062 215.792969 311.457031 214.949219 310.105469 214.140625 C 308.753906 213.328125 307.386719 212.554688 305.996094 211.808594 C 304.605469 211.066406 303.199219 210.359375 301.773438 209.6875 C 300.351562 209.011719 298.910156 208.375 297.453125 207.769531 C 296 207.167969 294.53125 206.601562 293.046875 206.070312 C 291.5625 205.539062 290.066406 205.046875 288.558594 204.589844 C 287.050781 204.128906 285.535156 203.710938 284.003906 203.328125 C 282.476562 202.945312 280.941406 202.601562 279.394531 202.292969 C 277.847656 201.984375 276.296875 201.714844 274.738281 201.484375 C 273.179688 201.253906 271.617188 201.0625 270.050781 200.90625 C 268.480469 200.75 266.910156 200.636719 265.335938 200.558594 C 263.761719 200.480469 262.1875 200.441406 260.613281 200.441406 Z M 260.613281 200.441406 " fill-opacity="1" fill-rule="nonzero"/></g><g clip-path="url(#abd25a577d)"><path fill="#231f20" d="M 561.464844 549.429688 C 559.691406 549.429688 557.921875 549.386719 556.152344 549.300781 C 554.378906 549.214844 552.613281 549.082031 550.847656 548.910156 C 549.085938 548.734375 547.328125 548.519531 545.574219 548.257812 C 543.820312 548 542.074219 547.695312 540.335938 547.351562 C 538.597656 547.003906 536.867188 546.617188 535.148438 546.183594 C 533.429688 545.753906 531.722656 545.28125 530.027344 544.765625 C 528.328125 544.253906 526.648438 543.695312 524.976562 543.101562 C 523.308594 542.503906 521.65625 541.863281 520.019531 541.1875 C 518.378906 540.507812 516.761719 539.789062 515.15625 539.03125 C 513.554688 538.273438 511.972656 537.476562 510.410156 536.640625 C 508.847656 535.808594 507.304688 534.933594 505.785156 534.023438 C 504.265625 533.109375 502.765625 532.164062 501.292969 531.179688 C 499.820312 530.195312 498.371094 529.171875 496.945312 528.117188 C 495.523438 527.0625 494.125 525.972656 492.757812 524.847656 C 491.386719 523.722656 490.042969 522.566406 488.730469 521.375 C 487.417969 520.183594 486.132812 518.960938 484.878906 517.707031 C 483.628906 516.457031 482.40625 515.171875 481.214844 513.859375 C 480.023438 512.546875 478.867188 511.203125 477.742188 509.832031 C 476.617188 508.464844 475.527344 507.066406 474.472656 505.644531 C 473.417969 504.21875 472.394531 502.769531 471.410156 501.296875 C 470.425781 499.824219 469.480469 498.324219 468.566406 496.804688 C 467.65625 495.285156 466.78125 493.742188 465.945312 492.179688 C 465.113281 490.617188 464.316406 489.035156 463.558594 487.429688 C 462.800781 485.828125 462.082031 484.210938 461.402344 482.570312 C 460.722656 480.933594 460.085938 479.28125 459.488281 477.613281 C 458.890625 475.941406 458.335938 474.261719 457.820312 472.5625 C 457.308594 470.867188 456.835938 469.160156 456.402344 467.441406 C 455.972656 465.722656 455.585938 463.992188 455.238281 462.253906 C 454.894531 460.515625 454.589844 458.769531 454.332031 457.015625 C 454.070312 455.261719 453.855469 453.503906 453.679688 451.742188 C 453.507812 449.976562 453.375 448.210938 453.289062 446.4375 C 453.203125 444.667969 453.160156 442.898438 453.160156 441.125 C 453.160156 439.351562 453.203125 437.582031 453.289062 435.808594 C 453.375 434.039062 453.507812 432.273438 453.679688 430.507812 C 453.855469 428.746094 454.070312 426.984375 454.332031 425.234375 C 454.589844 423.480469 454.894531 421.734375 455.238281 419.996094 C 455.585938 418.257812 455.972656 416.527344 456.402344 414.808594 C 456.835938 413.089844 457.308594 411.378906 457.820312 409.683594 C 458.335938 407.988281 458.890625 406.304688 459.488281 404.636719 C 460.085938 402.96875 460.722656 401.316406 461.402344 399.675781 C 462.082031 398.039062 462.800781 396.417969 463.558594 394.816406 C 464.316406 393.214844 465.113281 391.632812 465.945312 390.070312 C 466.78125 388.503906 467.65625 386.964844 468.566406 385.445312 C 469.480469 383.921875 470.425781 382.425781 471.410156 380.953125 C 472.394531 379.480469 473.417969 378.03125 474.472656 376.605469 C 475.527344 375.183594 476.617188 373.785156 477.742188 372.414062 C 478.867188 371.046875 480.023438 369.703125 481.214844 368.390625 C 482.40625 367.078125 483.628906 365.792969 484.878906 364.539062 C 486.132812 363.285156 487.417969 362.066406 488.730469 360.875 C 490.042969 359.683594 491.386719 358.527344 492.757812 357.402344 C 494.125 356.277344 495.523438 355.1875 496.945312 354.132812 C 498.371094 353.074219 499.820312 352.054688 501.292969 351.070312 C 502.765625 350.085938 504.265625 349.136719 505.785156 348.226562 C 507.304688 347.316406 508.847656 346.441406 510.410156 345.605469 C 511.972656 344.769531 513.554688 343.972656 515.15625 343.214844 C 516.761719 342.457031 518.378906 341.738281 520.019531 341.0625 C 521.65625 340.382812 523.308594 339.746094 524.976562 339.148438 C 526.648438 338.550781 528.328125 337.996094 530.027344 337.480469 C 531.722656 336.964844 533.429688 336.492188 535.148438 336.0625 C 536.867188 335.632812 538.597656 335.246094 540.335938 334.898438 C 542.074219 334.554688 543.820312 334.25 545.574219 333.988281 C 547.328125 333.730469 549.085938 333.511719 550.847656 333.339844 C 552.613281 333.164062 554.378906 333.035156 556.152344 332.949219 C 557.921875 332.859375 559.691406 332.816406 561.464844 332.816406 C 563.238281 332.816406 565.007812 332.859375 566.78125 332.949219 C 568.550781 333.035156 570.316406 333.164062 572.082031 333.339844 C 573.84375 333.511719 575.605469 333.730469 577.355469 333.988281 C 579.109375 334.25 580.855469 334.554688 582.59375 334.898438 C 584.332031 335.246094 586.0625 335.632812 587.78125 336.0625 C 589.5 336.492188 591.207031 336.964844 592.90625 337.480469 C 594.601562 337.996094 596.285156 338.550781 597.953125 339.148438 C 599.621094 339.746094 601.273438 340.382812 602.914062 341.0625 C 604.550781 341.738281 606.171875 342.457031 607.773438 343.214844 C 609.375 343.972656 610.957031 344.769531 612.519531 345.605469 C 614.085938 346.441406 615.625 347.316406 617.144531 348.226562 C 618.667969 349.136719 620.164062 350.085938 621.636719 351.070312 C 623.109375 352.054688 624.558594 353.074219 625.984375 354.132812 C 627.40625 355.1875 628.804688 356.277344 630.175781 357.402344 C 631.542969 358.527344 632.886719 359.683594 634.199219 360.875 C 635.511719 362.066406 636.796875 363.285156 638.050781 364.539062 C 639.304688 365.792969 640.523438 367.078125 641.714844 368.390625 C 642.90625 369.703125 644.0625 371.046875 645.1875 372.414062 C 646.3125 373.785156 647.402344 375.183594 648.457031 376.605469 C 649.515625 378.03125 650.535156 379.476562 651.519531 380.953125 C 652.503906 382.425781 653.453125 383.921875 654.363281 385.445312 C 655.273438 386.964844 656.148438 388.503906 656.984375 390.070312 C 657.820312 391.632812 658.617188 393.214844 659.375 394.816406 C 660.132812 396.417969 660.847656 398.039062 661.527344 399.675781 C 662.207031 401.316406 662.84375 402.96875 663.441406 404.636719 C 664.039062 406.304688 664.59375 407.988281 665.109375 409.683594 C 665.621094 411.378906 666.09375 413.089844 666.527344 414.808594 C 666.957031 416.527344 667.34375 418.257812 667.691406 419.996094 C 668.035156 421.734375 668.339844 423.480469 668.601562 425.234375 C 668.859375 426.984375 669.078125 428.746094 669.25 430.507812 C 669.425781 432.273438 669.554688 434.039062 669.640625 435.808594 C 669.730469 437.582031 669.773438 439.351562 669.773438 441.125 C 669.773438 442.898438 669.730469 444.667969 669.640625 446.4375 C 669.554688 448.210938 669.425781 449.976562 669.25 451.742188 C 669.078125 453.503906 668.859375 455.261719 668.601562 457.015625 C 668.339844 458.769531 668.035156 460.515625 667.691406 462.253906 C 667.34375 463.992188 666.957031 465.722656 666.527344 467.441406 C 666.09375 469.160156 665.621094 470.867188 665.109375 472.5625 C 664.59375 474.261719 664.039062 475.941406 663.441406 477.613281 C 662.84375 479.28125 662.207031 480.933594 661.527344 482.570312 C 660.847656 484.210938 660.132812 485.828125 659.375 487.429688 C 658.617188 489.035156 657.820312 490.617188 656.984375 492.179688 C 656.148438 493.742188 655.273438 495.285156 654.363281 496.804688 C 653.453125 498.324219 652.503906 499.824219 651.519531 501.296875 C 650.535156 502.769531 649.515625 504.21875 648.457031 505.644531 C 647.402344 507.066406 646.3125 508.464844 645.1875 509.832031 C 644.0625 511.203125 642.90625 512.546875 641.714844 513.859375 C 640.523438 515.171875 639.304688 516.457031 638.050781 517.707031 C 636.796875 518.960938 635.511719 520.183594 634.199219 521.375 C 632.886719 522.566406 631.542969 523.722656 630.175781 524.847656 C 628.804688 525.972656 627.40625 527.0625 625.984375 528.117188 C 624.558594 529.171875 623.109375 530.195312 621.636719 531.179688 C 620.164062 532.164062 618.667969 533.109375 617.144531 534.023438 C 615.625 534.933594 614.085938 535.808594 612.519531 536.640625 C 610.957031 537.476562 609.375 538.273438 607.773438 539.03125 C 606.171875 539.789062 604.550781 540.507812 602.914062 541.1875 C 601.273438 541.863281 599.621094 542.503906 597.953125 543.101562 C 596.285156 543.695312 594.601562 544.253906 592.90625 544.765625 C 591.207031 545.28125 589.5 545.753906 587.78125 546.183594 C 586.0625 546.617188 584.332031 547.003906 582.59375 547.351562 C 580.855469 547.695312 579.109375 548 577.355469 548.257812 C 575.605469 548.519531 573.84375 548.734375 572.082031 548.910156 C 570.316406 549.082031 568.550781 549.214844 566.78125 549.300781 C 565.007812 549.386719 563.238281 549.429688 561.464844 549.429688 Z M 561.464844 356.886719 C 560.085938 356.886719 558.707031 356.917969 557.332031 356.988281 C 555.953125 357.054688 554.582031 357.15625 553.207031 357.292969 C 551.835938 357.425781 550.46875 357.59375 549.105469 357.796875 C 547.742188 358 546.382812 358.234375 545.03125 358.503906 C 543.679688 358.773438 542.335938 359.074219 540.996094 359.410156 C 539.660156 359.746094 538.332031 360.113281 537.011719 360.511719 C 535.691406 360.914062 534.382812 361.34375 533.085938 361.808594 C 531.789062 362.273438 530.503906 362.769531 529.226562 363.296875 C 527.953125 363.824219 526.695312 364.382812 525.449219 364.972656 C 524.203125 365.5625 522.972656 366.183594 521.753906 366.832031 C 520.539062 367.480469 519.339844 368.160156 518.15625 368.871094 C 516.976562 369.578125 515.8125 370.316406 514.664062 371.082031 C 513.519531 371.847656 512.390625 372.640625 511.285156 373.464844 C 510.175781 374.285156 509.089844 375.132812 508.023438 376.007812 C 506.960938 376.882812 505.914062 377.78125 504.894531 378.707031 C 503.871094 379.632812 502.875 380.582031 501.898438 381.558594 C 500.925781 382.535156 499.972656 383.53125 499.046875 384.554688 C 498.121094 385.574219 497.222656 386.617188 496.347656 387.683594 C 495.472656 388.75 494.625 389.835938 493.804688 390.945312 C 492.984375 392.050781 492.1875 393.175781 491.421875 394.324219 C 490.65625 395.46875 489.921875 396.632812 489.210938 397.816406 C 488.503906 399 487.824219 400.199219 487.171875 401.414062 C 486.523438 402.628906 485.902344 403.863281 485.3125 405.109375 C 484.726562 406.355469 484.167969 407.613281 483.640625 408.886719 C 483.109375 410.160156 482.617188 411.445312 482.152344 412.746094 C 481.6875 414.042969 481.253906 415.351562 480.855469 416.671875 C 480.453125 417.992188 480.085938 419.320312 479.75 420.65625 C 479.417969 421.992188 479.113281 423.339844 478.84375 424.691406 C 478.578125 426.042969 478.339844 427.398438 478.136719 428.765625 C 477.9375 430.128906 477.765625 431.496094 477.632812 432.867188 C 477.496094 434.238281 477.394531 435.613281 477.328125 436.992188 C 477.261719 438.367188 477.226562 439.746094 477.226562 441.125 C 477.226562 442.503906 477.261719 443.878906 477.328125 445.257812 C 477.394531 446.632812 477.496094 448.007812 477.632812 449.382812 C 477.765625 450.753906 477.9375 452.121094 478.136719 453.484375 C 478.339844 454.847656 478.578125 456.207031 478.84375 457.558594 C 479.113281 458.910156 479.417969 460.253906 479.75 461.59375 C 480.085938 462.929688 480.453125 464.257812 480.855469 465.578125 C 481.253906 466.898438 481.6875 468.207031 482.152344 469.503906 C 482.617188 470.800781 483.109375 472.085938 483.640625 473.359375 C 484.167969 474.632812 484.726562 475.894531 485.3125 477.140625 C 485.902344 478.386719 486.523438 479.617188 487.171875 480.835938 C 487.824219 482.050781 488.503906 483.25 489.210938 484.429688 C 489.921875 485.613281 490.65625 486.777344 491.421875 487.925781 C 492.1875 489.070312 492.984375 490.199219 493.804688 491.304688 C 494.625 492.414062 495.472656 493.5 496.347656 494.566406 C 497.222656 495.628906 498.121094 496.675781 499.046875 497.695312 C 499.972656 498.71875 500.925781 499.714844 501.898438 500.691406 C 502.875 501.664062 503.871094 502.617188 504.894531 503.542969 C 505.914062 504.46875 506.960938 505.367188 508.023438 506.242188 C 509.089844 507.117188 510.175781 507.964844 511.285156 508.785156 C 512.390625 509.605469 513.519531 510.398438 514.664062 511.167969 C 515.8125 511.933594 516.976562 512.667969 518.15625 513.378906 C 519.339844 514.085938 520.539062 514.765625 521.753906 515.417969 C 522.972656 516.066406 524.203125 516.6875 525.449219 517.273438 C 526.695312 517.863281 527.953125 518.421875 529.226562 518.949219 C 530.503906 519.476562 531.789062 519.972656 533.085938 520.4375 C 534.382812 520.902344 535.691406 521.335938 537.011719 521.734375 C 538.332031 522.136719 539.660156 522.503906 540.996094 522.839844 C 542.335938 523.171875 543.679688 523.476562 545.03125 523.746094 C 546.382812 524.011719 547.742188 524.25 549.105469 524.453125 C 550.46875 524.652344 551.835938 524.820312 553.207031 524.957031 C 554.582031 525.09375 555.953125 525.195312 557.332031 525.261719 C 558.707031 525.328125 560.085938 525.363281 561.464844 525.363281 C 562.84375 525.363281 564.222656 525.328125 565.597656 525.261719 C 566.976562 525.195312 568.351562 525.09375 569.722656 524.957031 C 571.09375 524.820312 572.460938 524.652344 573.824219 524.453125 C 575.1875 524.25 576.546875 524.011719 577.898438 523.746094 C 579.25 523.476562 580.597656 523.171875 581.933594 522.839844 C 583.269531 522.503906 584.597656 522.136719 585.917969 521.734375 C 587.238281 521.335938 588.546875 520.902344 589.84375 520.4375 C 591.140625 519.972656 592.429688 519.476562 593.703125 518.949219 C 594.976562 518.421875 596.234375 517.863281 597.480469 517.273438 C 598.726562 516.6875 599.960938 516.066406 601.175781 515.417969 C 602.390625 514.765625 603.589844 514.085938 604.773438 513.378906 C 605.957031 512.667969 607.121094 511.933594 608.265625 511.167969 C 609.410156 510.398438 610.539062 509.605469 611.644531 508.785156 C 612.753906 507.964844 613.839844 507.117188 614.90625 506.242188 C 615.972656 505.367188 617.015625 504.46875 618.035156 503.542969 C 619.058594 502.617188 620.054688 501.664062 621.03125 500.691406 C 622.003906 499.714844 622.957031 498.71875 623.882812 497.695312 C 624.808594 496.675781 625.707031 495.628906 626.582031 494.566406 C 627.457031 493.5 628.304688 492.414062 629.125 491.304688 C 629.949219 490.199219 630.742188 489.070312 631.507812 487.925781 C 632.273438 486.777344 633.011719 485.613281 633.71875 484.429688 C 634.429688 483.25 635.105469 482.050781 635.757812 480.835938 C 636.40625 479.617188 637.027344 478.386719 637.617188 477.140625 C 638.207031 475.894531 638.765625 474.632812 639.292969 473.359375 C 639.820312 472.085938 640.316406 470.800781 640.78125 469.503906 C 641.242188 468.207031 641.675781 466.898438 642.078125 465.578125 C 642.476562 464.257812 642.84375 462.929688 643.179688 461.59375 C 643.515625 460.253906 643.816406 458.910156 644.085938 457.558594 C 644.355469 456.207031 644.589844 454.847656 644.792969 453.484375 C 644.996094 452.121094 645.164062 450.753906 645.296875 449.382812 C 645.433594 448.007812 645.535156 446.632812 645.601562 445.257812 C 645.671875 443.878906 645.703125 442.503906 645.703125 441.125 C 645.703125 439.746094 645.671875 438.367188 645.601562 436.992188 C 645.535156 435.613281 645.433594 434.238281 645.296875 432.867188 C 645.164062 431.496094 644.996094 430.128906 644.792969 428.765625 C 644.589844 427.398438 644.355469 426.042969 644.085938 424.691406 C 643.816406 423.339844 643.515625 421.992188 643.179688 420.65625 C 642.84375 419.320312 642.476562 417.992188 642.078125 416.671875 C 641.675781 415.351562 641.242188 414.042969 640.78125 412.746094 C 640.316406 411.445312 639.820312 410.160156 639.292969 408.886719 C 638.765625 407.613281 638.207031 406.355469 637.617188 405.109375 C 637.027344 403.863281 636.40625 402.628906 635.757812 401.414062 C 635.105469 400.199219 634.429688 399 633.71875 397.816406 C 633.011719 396.632812 632.273438 395.46875 631.507812 394.324219 C 630.742188 393.175781 629.949219 392.050781 629.125 390.945312 C 628.304688 389.835938 627.457031 388.75 626.582031 387.683594 C 625.707031 386.617188 624.808594 385.574219 623.882812 384.554688 C 622.957031 383.53125 622.003906 382.535156 621.03125 381.558594 C 620.054688 380.582031 619.058594 379.632812 618.035156 378.707031 C 617.015625 377.78125 615.972656 376.882812 614.90625 376.007812 C 613.839844 375.132812 612.753906 374.285156 611.644531 373.464844 C 610.539062 372.640625 609.410156 371.847656 608.265625 371.082031 C 607.121094 370.316406 605.953125 369.578125 604.773438 368.871094 C 603.589844 368.160156 602.390625 367.480469 601.175781 366.832031 C 599.960938 366.183594 598.726562 365.5625 597.480469 364.972656 C 596.234375 364.382812 594.976562 363.824219 593.703125 363.296875 C 592.429688 362.769531 591.140625 362.273438 589.84375 361.808594 C 588.546875 361.34375 587.238281 360.914062 585.917969 360.511719 C 584.597656 360.113281 583.269531 359.746094 581.933594 359.410156 C 580.597656 359.074219 579.25 358.773438 577.898438 358.503906 C 576.546875 358.234375 575.1875 358 573.824219 357.796875 C 572.460938 357.59375 571.09375 357.425781 569.722656 357.292969 C 568.351562 357.15625 566.976562 357.054688 565.597656 356.988281 C 564.222656 356.917969 562.84375 356.886719 561.464844 356.886719 Z M 561.464844 356.886719 " fill-opacity="1" fill-rule="nonzero"/></g><g clip-path="url(#34ea74c0e0)"><path fill="#231f20" d="M 272.648438 669.773438 C 271.070312 669.773438 269.496094 669.734375 267.921875 669.65625 C 266.347656 669.578125 264.777344 669.464844 263.210938 669.308594 C 261.644531 669.152344 260.078125 668.960938 258.519531 668.730469 C 256.960938 668.5 255.410156 668.230469 253.863281 667.921875 C 252.320312 667.613281 250.78125 667.269531 249.253906 666.886719 C 247.726562 666.503906 246.207031 666.085938 244.699219 665.625 C 243.191406 665.167969 241.695312 664.675781 240.214844 664.144531 C 238.730469 663.613281 237.261719 663.046875 235.804688 662.445312 C 234.347656 661.839844 232.910156 661.203125 231.484375 660.527344 C 230.0625 659.855469 228.652344 659.148438 227.265625 658.40625 C 225.875 657.660156 224.503906 656.886719 223.152344 656.074219 C 221.800781 655.265625 220.472656 654.421875 219.160156 653.546875 C 217.851562 652.671875 216.5625 651.765625 215.296875 650.828125 C 214.03125 649.886719 212.789062 648.917969 211.574219 647.917969 C 210.355469 646.917969 209.160156 645.890625 207.996094 644.832031 C 206.828125 643.773438 205.6875 642.6875 204.570312 641.574219 C 203.457031 640.460938 202.371094 639.320312 201.3125 638.152344 C 200.253906 636.984375 199.226562 635.792969 198.226562 634.574219 C 197.226562 633.355469 196.257812 632.113281 195.320312 630.847656 C 194.382812 629.582031 193.472656 628.296875 192.597656 626.984375 C 191.722656 625.675781 190.882812 624.34375 190.070312 622.992188 C 189.261719 621.640625 188.484375 620.273438 187.742188 618.882812 C 187 617.492188 186.292969 616.085938 185.617188 614.660156 C 184.945312 613.238281 184.304688 611.796875 183.703125 610.339844 C 183.101562 608.886719 182.53125 607.417969 182.003906 605.933594 C 181.472656 604.449219 180.976562 602.953125 180.519531 601.445312 C 180.0625 599.9375 179.640625 598.421875 179.257812 596.890625 C 178.875 595.363281 178.53125 593.828125 178.222656 592.28125 C 177.917969 590.734375 177.648438 589.183594 177.417969 587.625 C 177.183594 586.066406 176.992188 584.503906 176.839844 582.9375 C 176.683594 581.367188 176.566406 579.796875 176.492188 578.222656 C 176.414062 576.648438 176.375 575.074219 176.375 573.5 C 176.375 571.925781 176.414062 570.347656 176.492188 568.777344 C 176.566406 567.203125 176.683594 565.632812 176.839844 564.0625 C 176.992188 562.496094 177.183594 560.933594 177.417969 559.375 C 177.648438 557.816406 177.917969 556.261719 178.222656 554.71875 C 178.53125 553.171875 178.875 551.636719 179.257812 550.105469 C 179.640625 548.578125 180.0625 547.0625 180.519531 545.554688 C 180.976562 544.046875 181.472656 542.550781 182.003906 541.066406 C 182.53125 539.582031 183.101562 538.113281 183.703125 536.65625 C 184.304688 535.203125 184.945312 533.761719 185.617188 532.335938 C 186.292969 530.914062 187 529.507812 187.742188 528.117188 C 188.484375 526.726562 189.261719 525.355469 190.070312 524.003906 C 190.882812 522.652344 191.722656 521.324219 192.597656 520.011719 C 193.472656 518.703125 194.382812 517.414062 195.320312 516.148438 C 196.257812 514.882812 197.226562 513.640625 198.226562 512.425781 C 199.226562 511.207031 200.253906 510.015625 201.3125 508.847656 C 202.371094 507.679688 203.457031 506.539062 204.570312 505.425781 C 205.6875 504.308594 206.828125 503.222656 207.996094 502.164062 C 209.160156 501.109375 210.355469 500.078125 211.574219 499.078125 C 212.789062 498.078125 214.03125 497.109375 215.296875 496.171875 C 216.5625 495.234375 217.851562 494.328125 219.160156 493.453125 C 220.472656 492.578125 221.800781 491.734375 223.152344 490.921875 C 224.503906 490.113281 225.875 489.335938 227.265625 488.59375 C 228.652344 487.851562 230.0625 487.144531 231.484375 486.46875 C 232.910156 485.796875 234.347656 485.15625 235.804688 484.554688 C 237.261719 483.953125 238.730469 483.386719 240.214844 482.855469 C 241.695312 482.324219 243.191406 481.828125 244.699219 481.371094 C 246.207031 480.914062 247.726562 480.496094 249.253906 480.113281 C 250.78125 479.730469 252.320312 479.382812 253.863281 479.078125 C 255.410156 478.769531 256.960938 478.5 258.519531 478.269531 C 260.078125 478.039062 261.644531 477.84375 263.210938 477.691406 C 264.777344 477.535156 266.347656 477.421875 267.921875 477.34375 C 269.496094 477.265625 271.070312 477.226562 272.648438 477.226562 C 274.222656 477.226562 275.796875 477.265625 277.371094 477.34375 C 278.945312 477.421875 280.515625 477.535156 282.082031 477.691406 C 283.652344 477.84375 285.214844 478.039062 286.773438 478.269531 C 288.332031 478.5 289.882812 478.769531 291.429688 479.078125 C 292.972656 479.382812 294.511719 479.730469 296.039062 480.113281 C 297.566406 480.496094 299.085938 480.914062 300.59375 481.371094 C 302.101562 481.828125 303.597656 482.324219 305.082031 482.855469 C 306.5625 483.386719 308.035156 483.953125 309.488281 484.554688 C 310.945312 485.15625 312.382812 485.796875 313.808594 486.46875 C 315.234375 487.144531 316.640625 487.851562 318.03125 488.59375 C 319.417969 489.335938 320.789062 490.113281 322.140625 490.921875 C 323.492188 491.734375 324.824219 492.574219 326.132812 493.453125 C 327.445312 494.328125 328.730469 495.234375 329.996094 496.171875 C 331.261719 497.109375 332.503906 498.078125 333.722656 499.078125 C 334.941406 500.078125 336.132812 501.109375 337.300781 502.164062 C 338.46875 503.222656 339.609375 504.308594 340.722656 505.425781 C 341.835938 506.539062 342.921875 507.679688 343.980469 508.847656 C 345.039062 510.015625 346.066406 511.207031 347.066406 512.425781 C 348.066406 513.640625 349.035156 514.882812 349.972656 516.148438 C 350.914062 517.414062 351.820312 518.703125 352.695312 520.011719 C 353.570312 521.324219 354.414062 522.652344 355.222656 524.003906 C 356.03125 525.355469 356.808594 526.726562 357.550781 528.117188 C 358.292969 529.507812 359.003906 530.914062 359.675781 532.335938 C 360.351562 533.761719 360.988281 535.203125 361.589844 536.65625 C 362.195312 538.113281 362.761719 539.582031 363.292969 541.066406 C 363.824219 542.550781 364.316406 544.046875 364.773438 545.554688 C 365.230469 547.0625 365.652344 548.578125 366.035156 550.105469 C 366.417969 551.636719 366.761719 553.171875 367.070312 554.71875 C 367.378906 556.261719 367.648438 557.816406 367.878906 559.375 C 368.109375 560.933594 368.300781 562.496094 368.457031 564.0625 C 368.609375 565.632812 368.726562 567.203125 368.804688 568.777344 C 368.882812 570.347656 368.917969 571.925781 368.917969 573.5 C 368.917969 575.074219 368.882812 576.648438 368.804688 578.222656 C 368.726562 579.796875 368.609375 581.367188 368.457031 582.9375 C 368.300781 584.503906 368.109375 586.066406 367.878906 587.625 C 367.648438 589.183594 367.378906 590.734375 367.070312 592.28125 C 366.761719 593.828125 366.417969 595.363281 366.035156 596.890625 C 365.652344 598.421875 365.230469 599.9375 364.773438 601.445312 C 364.316406 602.953125 363.824219 604.449219 363.292969 605.933594 C 362.761719 607.417969 362.195312 608.886719 361.589844 610.339844 C 360.988281 611.796875 360.351562 613.238281 359.675781 614.660156 C 359.003906 616.085938 358.292969 617.492188 357.550781 618.882812 C 356.808594 620.273438 356.03125 621.640625 355.222656 622.992188 C 354.414062 624.34375 353.570312 625.675781 352.695312 626.984375 C 351.820312 628.296875 350.914062 629.582031 349.972656 630.847656 C 349.035156 632.113281 348.066406 633.355469 347.066406 634.574219 C 346.066406 635.792969 345.039062 636.984375 343.980469 638.152344 C 342.921875 639.320312 341.835938 640.460938 340.722656 641.574219 C 339.609375 642.6875 338.46875 643.773438 337.300781 644.832031 C 336.132812 645.890625 334.941406 646.917969 333.722656 647.917969 C 332.503906 648.917969 331.261719 649.886719 329.996094 650.828125 C 328.730469 651.765625 327.445312 652.671875 326.132812 653.546875 C 324.824219 654.421875 323.492188 655.265625 322.140625 656.074219 C 320.789062 656.886719 319.417969 657.660156 318.03125 658.40625 C 316.640625 659.148438 315.234375 659.855469 313.808594 660.527344 C 312.382812 661.203125 310.945312 661.839844 309.488281 662.445312 C 308.035156 663.046875 306.5625 663.613281 305.082031 664.144531 C 303.597656 664.675781 302.101562 665.167969 300.59375 665.625 C 299.085938 666.085938 297.566406 666.503906 296.039062 666.886719 C 294.511719 667.269531 292.972656 667.613281 291.429688 667.921875 C 289.882812 668.230469 288.332031 668.5 286.773438 668.730469 C 285.214844 668.960938 283.652344 669.152344 282.082031 669.308594 C 280.515625 669.464844 278.945312 669.578125 277.371094 669.65625 C 275.796875 669.734375 274.222656 669.773438 272.648438 669.773438 Z M 272.648438 501.292969 C 271.464844 501.292969 270.285156 501.324219 269.105469 501.382812 C 267.925781 501.441406 266.746094 501.527344 265.570312 501.640625 C 264.394531 501.757812 263.222656 501.902344 262.050781 502.078125 C 260.882812 502.25 259.71875 502.453125 258.5625 502.683594 C 257.402344 502.914062 256.25 503.171875 255.101562 503.457031 C 253.957031 503.746094 252.816406 504.0625 251.6875 504.402344 C 250.554688 504.746094 249.433594 505.117188 248.320312 505.515625 C 247.210938 505.914062 246.105469 506.339844 245.015625 506.792969 C 243.925781 507.242188 242.84375 507.722656 241.777344 508.226562 C 240.707031 508.730469 239.652344 509.261719 238.609375 509.820312 C 237.566406 510.378906 236.539062 510.960938 235.527344 511.566406 C 234.511719 512.175781 233.515625 512.808594 232.53125 513.464844 C 231.550781 514.121094 230.585938 514.800781 229.636719 515.503906 C 228.6875 516.207031 227.753906 516.933594 226.839844 517.683594 C 225.925781 518.433594 225.03125 519.207031 224.15625 520 C 223.28125 520.792969 222.425781 521.609375 221.589844 522.441406 C 220.753906 523.277344 219.941406 524.132812 219.148438 525.011719 C 218.351562 525.886719 217.582031 526.78125 216.832031 527.691406 C 216.082031 528.605469 215.355469 529.539062 214.652344 530.488281 C 213.949219 531.4375 213.269531 532.402344 212.609375 533.382812 C 211.953125 534.367188 211.324219 535.363281 210.714844 536.378906 C 210.109375 537.390625 209.523438 538.421875 208.96875 539.460938 C 208.410156 540.503906 207.878906 541.558594 207.375 542.628906 C 206.871094 543.695312 206.390625 544.777344 205.9375 545.867188 C 205.488281 546.960938 205.0625 548.0625 204.664062 549.175781 C 204.265625 550.285156 203.894531 551.410156 203.550781 552.539062 C 203.207031 553.671875 202.894531 554.808594 202.605469 555.957031 C 202.320312 557.101562 202.058594 558.253906 201.828125 559.414062 C 201.597656 560.570312 201.398438 561.734375 201.222656 562.90625 C 201.050781 564.074219 200.90625 565.246094 200.789062 566.421875 C 200.675781 567.597656 200.585938 568.777344 200.53125 569.957031 C 200.472656 571.136719 200.441406 572.316406 200.441406 573.5 C 200.441406 574.679688 200.472656 575.863281 200.53125 577.042969 C 200.585938 578.222656 200.675781 579.402344 200.789062 580.578125 C 200.90625 581.753906 201.050781 582.925781 201.222656 584.09375 C 201.398438 585.261719 201.597656 586.425781 201.828125 587.585938 C 202.058594 588.746094 202.320312 589.898438 202.605469 591.042969 C 202.894531 592.191406 203.207031 593.328125 203.550781 594.460938 C 203.894531 595.589844 204.265625 596.710938 204.664062 597.824219 C 205.0625 598.9375 205.488281 600.039062 205.9375 601.128906 C 206.390625 602.222656 206.871094 603.300781 207.375 604.371094 C 207.878906 605.4375 208.410156 606.496094 208.96875 607.535156 C 209.523438 608.578125 210.109375 609.605469 210.714844 610.621094 C 211.324219 611.632812 211.953125 612.632812 212.609375 613.613281 C 213.269531 614.597656 213.949219 615.5625 214.652344 616.511719 C 215.355469 617.460938 216.082031 618.390625 216.832031 619.304688 C 217.582031 620.21875 218.351562 621.113281 219.148438 621.988281 C 219.941406 622.863281 220.753906 623.71875 221.589844 624.554688 C 222.425781 625.390625 223.28125 626.207031 224.15625 627 C 225.03125 627.792969 225.925781 628.566406 226.839844 629.3125 C 227.753906 630.0625 228.6875 630.789062 229.636719 631.496094 C 230.585938 632.199219 231.550781 632.878906 232.53125 633.535156 C 233.515625 634.191406 234.511719 634.824219 235.527344 635.429688 C 236.539062 636.039062 237.566406 636.621094 238.609375 637.179688 C 239.652344 637.734375 240.707031 638.265625 241.777344 638.769531 C 242.84375 639.277344 243.925781 639.753906 245.015625 640.207031 C 246.105469 640.660156 247.210938 641.085938 248.320312 641.484375 C 249.433594 641.882812 250.554688 642.25 251.6875 642.59375 C 252.816406 642.9375 253.957031 643.253906 255.101562 643.539062 C 256.25 643.828125 257.402344 644.085938 258.5625 644.316406 C 259.71875 644.546875 260.882812 644.75 262.050781 644.921875 C 263.222656 645.097656 264.394531 645.242188 265.570312 645.355469 C 266.746094 645.472656 267.925781 645.558594 269.105469 645.617188 C 270.285156 645.675781 271.464844 645.703125 272.648438 645.703125 C 273.828125 645.703125 275.007812 645.675781 276.191406 645.617188 C 277.371094 645.558594 278.546875 645.472656 279.722656 645.355469 C 280.898438 645.242188 282.074219 645.097656 283.242188 644.921875 C 284.410156 644.75 285.574219 644.546875 286.734375 644.316406 C 287.890625 644.085938 289.046875 643.828125 290.191406 643.539062 C 291.335938 643.253906 292.476562 642.9375 293.605469 642.59375 C 294.738281 642.25 295.859375 641.882812 296.972656 641.484375 C 298.085938 641.085938 299.1875 640.660156 300.277344 640.207031 C 301.371094 639.753906 302.449219 639.277344 303.519531 638.769531 C 304.585938 638.265625 305.640625 637.734375 306.683594 637.179688 C 307.726562 636.621094 308.753906 636.039062 309.769531 635.429688 C 310.78125 634.824219 311.777344 634.191406 312.761719 633.535156 C 313.746094 632.878906 314.710938 632.199219 315.660156 631.496094 C 316.609375 630.789062 317.539062 630.0625 318.453125 629.3125 C 319.367188 628.566406 320.261719 627.792969 321.136719 627 C 322.011719 626.207031 322.867188 625.390625 323.703125 624.554688 C 324.539062 623.71875 325.355469 622.863281 326.148438 621.988281 C 326.941406 621.113281 327.710938 620.21875 328.460938 619.304688 C 329.210938 618.390625 329.9375 617.460938 330.640625 616.511719 C 331.347656 615.5625 332.027344 614.597656 332.683594 613.613281 C 333.339844 612.632812 333.972656 611.632812 334.578125 610.621094 C 335.1875 609.605469 335.769531 608.578125 336.324219 607.535156 C 336.882812 606.496094 337.414062 605.4375 337.917969 604.371094 C 338.425781 603.300781 338.902344 602.222656 339.355469 601.128906 C 339.808594 600.039062 340.234375 598.9375 340.628906 597.824219 C 341.027344 596.710938 341.398438 595.589844 341.742188 594.460938 C 342.085938 593.328125 342.402344 592.191406 342.6875 591.042969 C 342.976562 589.898438 343.234375 588.746094 343.464844 587.585938 C 343.695312 586.425781 343.898438 585.261719 344.070312 584.09375 C 344.242188 582.925781 344.386719 581.753906 344.503906 580.578125 C 344.621094 579.402344 344.707031 578.222656 344.765625 577.042969 C 344.824219 575.863281 344.851562 574.679688 344.851562 573.5 C 344.851562 572.316406 344.824219 571.136719 344.765625 569.957031 C 344.707031 568.777344 344.621094 567.597656 344.503906 566.421875 C 344.386719 565.246094 344.242188 564.074219 344.070312 562.90625 C 343.898438 561.734375 343.695312 560.570312 343.464844 559.414062 C 343.234375 558.253906 342.976562 557.101562 342.6875 555.957031 C 342.402344 554.808594 342.085938 553.671875 341.742188 552.539062 C 341.398438 551.410156 341.027344 550.285156 340.628906 549.175781 C 340.234375 548.0625 339.808594 546.960938 339.355469 545.867188 C 338.902344 544.777344 338.425781 543.695312 337.917969 542.628906 C 337.414062 541.558594 336.882812 540.503906 336.324219 539.460938 C 335.769531 538.421875 335.1875 537.390625 334.578125 536.378906 C 333.972656 535.363281 333.339844 534.367188 332.683594 533.382812 C 332.027344 532.402344 331.347656 531.4375 330.640625 530.488281 C 329.9375 529.539062 329.210938 528.605469 328.460938 527.691406 C 327.710938 526.78125 326.941406 525.886719 326.148438 525.011719 C 325.355469 524.132812 324.539062 523.277344 323.703125 522.441406 C 322.867188 521.609375 322.011719 520.792969 321.136719 520 C 320.261719 519.207031 319.367188 518.433594 318.453125 517.683594 C 317.539062 516.933594 316.609375 516.207031 315.660156 515.503906 C 314.710938 514.800781 313.746094 514.121094 312.761719 513.464844 C 311.777344 512.808594 310.78125 512.175781 309.769531 511.566406 C 308.753906 510.960938 307.726562 510.378906 306.683594 509.820312 C 305.640625 509.261719 304.585938 508.730469 303.519531 508.226562 C 302.449219 507.722656 301.371094 507.242188 300.277344 506.792969 C 299.1875 506.339844 298.085938 505.914062 296.972656 505.515625 C 295.859375 505.117188 294.738281 504.746094 293.605469 504.402344 C 292.476562 504.0625 291.335938 503.746094 290.191406 503.457031 C 289.046875 503.171875 287.890625 502.914062 286.734375 502.683594 C 285.574219 502.453125 284.410156 502.25 283.242188 502.078125 C 282.074219 501.902344 280.898438 501.757812 279.722656 501.640625 C 278.546875 501.527344 277.371094 501.441406 276.191406 501.382812 C 275.007812 501.324219 273.828125 501.292969 272.648438 501.292969 Z M 272.648438 501.292969 " fill-opacity="1" fill-rule="nonzero"/></g><path fill="#231f20" d="M 272.648438 630.902344 C 271.046875 630.910156 269.507812 630.613281 268.027344 630.007812 C 266.546875 629.402344 265.238281 628.539062 264.101562 627.414062 L 232.574219 595.761719 C 211.515625 574.703125 212.476562 551.355469 224.511719 539.324219 C 236.542969 527.289062 253.875 526.566406 272.648438 539.324219 C 275.058594 537.386719 277.652344 535.738281 280.425781 534.378906 C 283.203125 533.015625 286.09375 531.976562 289.101562 531.261719 C 292.109375 530.542969 295.160156 530.164062 298.25 530.121094 C 301.34375 530.082031 304.402344 530.378906 307.425781 531.019531 C 308.679688 531.34375 309.90625 531.753906 311.105469 532.242188 C 312.304688 532.730469 313.46875 533.296875 314.59375 533.941406 C 315.71875 534.585938 316.792969 535.300781 317.824219 536.085938 C 318.851562 536.875 319.824219 537.726562 320.742188 538.640625 C 321.65625 539.558594 322.507812 540.53125 323.296875 541.5625 C 324.082031 542.589844 324.796875 543.667969 325.441406 544.792969 C 326.085938 545.914062 326.652344 547.078125 327.140625 548.277344 C 327.632812 549.476562 328.039062 550.703125 328.363281 551.957031 C 328.726562 553.941406 328.953125 555.9375 329.050781 557.945312 C 329.148438 559.957031 329.113281 561.96875 328.945312 563.972656 C 328.777344 565.980469 328.476562 567.96875 328.046875 569.933594 C 327.617188 571.902344 327.0625 573.832031 326.378906 575.726562 C 325.695312 577.621094 324.886719 579.460938 323.960938 581.25 C 323.035156 583.039062 321.996094 584.757812 320.84375 586.40625 C 319.691406 588.058594 318.433594 589.625 317.074219 591.113281 C 315.714844 592.597656 314.261719 593.988281 312.71875 595.28125 L 281.070312 626.929688 C 279.992188 628.132812 278.71875 629.074219 277.257812 629.765625 C 275.796875 630.453125 274.261719 630.832031 272.648438 630.902344 Z M 246.53125 554.726562 C 245.660156 554.664062 244.804688 554.769531 243.972656 555.039062 C 243.140625 555.308594 242.390625 555.726562 241.71875 556.289062 C 238.589844 559.300781 239.070312 568.324219 249.542969 578.792969 L 272.648438 601.898438 L 295.753906 578.792969 C 304.296875 570.128906 306.222656 562.789062 305.019531 558.699219 C 304.921875 558.222656 304.757812 557.773438 304.53125 557.347656 C 304.300781 556.917969 304.015625 556.535156 303.671875 556.191406 C 303.332031 555.851562 302.945312 555.5625 302.519531 555.335938 C 302.09375 555.105469 301.640625 554.941406 301.167969 554.847656 C 297.078125 553.761719 289.132812 555.570312 281.070312 564.113281 C 280.511719 564.667969 279.90625 565.164062 279.25 565.597656 C 278.59375 566.035156 277.902344 566.402344 277.175781 566.703125 C 276.449219 567.003906 275.699219 567.230469 274.925781 567.382812 C 274.152344 567.535156 273.375 567.613281 272.585938 567.613281 C 271.800781 567.613281 271.019531 567.535156 270.246094 567.382812 C 269.476562 567.230469 268.726562 567.003906 268 566.703125 C 267.269531 566.402344 266.578125 566.035156 265.921875 565.597656 C 265.269531 565.164062 264.660156 564.667969 264.101562 564.113281 C 263.011719 562.8125 261.8125 561.625 260.496094 560.554688 C 259.179688 559.484375 257.773438 558.546875 256.28125 557.742188 C 254.785156 556.9375 253.230469 556.28125 251.609375 555.777344 C 249.992188 555.269531 248.339844 554.917969 246.652344 554.726562 Z M 246.53125 554.726562 " fill-opacity="1" fill-rule="nonzero"/><path fill="#231f20" d="M 224.511719 352.792969 C 223.71875 352.792969 222.9375 352.71875 222.164062 352.5625 C 221.386719 352.410156 220.636719 352.179688 219.90625 351.878906 C 219.175781 351.574219 218.480469 351.203125 217.824219 350.765625 C 217.167969 350.328125 216.558594 349.828125 216 349.269531 C 215.441406 348.710938 214.945312 348.101562 214.503906 347.445312 C 214.066406 346.789062 213.695312 346.09375 213.394531 345.367188 C 213.089844 344.636719 212.863281 343.882812 212.707031 343.109375 C 212.554688 342.332031 212.476562 341.550781 212.476562 340.761719 L 212.476562 248.578125 C 212.472656 247.519531 212.605469 246.476562 212.878906 245.449219 C 213.148438 244.425781 213.546875 243.453125 214.078125 242.535156 C 214.605469 241.617188 215.242188 240.78125 215.992188 240.03125 C 216.742188 239.28125 217.574219 238.640625 218.492188 238.109375 C 219.410156 237.582031 220.375 237.179688 221.394531 236.90625 C 222.417969 236.632812 223.453125 236.496094 224.511719 236.496094 C 225.566406 236.496094 226.605469 236.632812 227.625 236.90625 C 228.644531 237.179688 229.613281 237.582031 230.527344 238.109375 L 310.796875 284.441406 C 311.714844 284.96875 312.546875 285.609375 313.296875 286.363281 C 314.046875 287.113281 314.683594 287.945312 315.210938 288.867188 C 315.742188 289.785156 316.140625 290.757812 316.410156 291.78125 C 316.683594 292.808594 316.816406 293.851562 316.8125 294.910156 C 316.804688 295.960938 316.664062 296.992188 316.386719 298.003906 C 316.113281 299.019531 315.710938 299.976562 315.183594 300.886719 C 314.652344 301.792969 314.019531 302.617188 313.273438 303.359375 C 312.53125 304.101562 311.703125 304.734375 310.796875 305.257812 L 230.527344 351.109375 C 228.671875 352.210938 226.667969 352.773438 224.511719 352.792969 Z M 236.542969 268.554688 L 236.542969 319.460938 L 280.710938 294.066406 Z M 236.542969 268.554688 " fill-opacity="1" fill-rule="nonzero"/><path fill="#231f20" d="M 573.5 501.292969 L 549.429688 501.292969 C 548.25 501.292969 547.070312 501.238281 545.890625 501.121094 C 544.714844 501.003906 543.546875 500.832031 542.386719 500.601562 C 541.226562 500.371094 540.082031 500.082031 538.953125 499.742188 C 537.820312 499.398438 536.707031 499 535.617188 498.546875 C 534.523438 498.09375 533.457031 497.589844 532.414062 497.03125 C 531.371094 496.472656 530.355469 495.867188 529.375 495.210938 C 528.390625 494.554688 527.441406 493.851562 526.527344 493.101562 C 525.613281 492.351562 524.738281 491.558594 523.902344 490.722656 C 523.066406 489.882812 522.273438 489.007812 521.523438 488.09375 C 520.773438 487.179688 520.070312 486.234375 519.414062 485.25 C 518.757812 484.265625 518.148438 483.253906 517.59375 482.210938 C 517.035156 481.167969 516.53125 480.101562 516.078125 479.007812 C 515.625 477.914062 515.226562 476.804688 514.882812 475.671875 C 514.539062 474.542969 514.253906 473.394531 514.023438 472.234375 C 513.792969 471.074219 513.617188 469.90625 513.503906 468.730469 C 513.386719 467.554688 513.328125 466.375 513.328125 465.191406 L 513.328125 411.039062 C 513.328125 410.054688 513.378906 409.070312 513.472656 408.089844 C 513.570312 407.109375 513.714844 406.136719 513.90625 405.167969 C 514.097656 404.203125 514.339844 403.25 514.625 402.304688 C 514.910156 401.363281 515.242188 400.4375 515.617188 399.527344 C 515.996094 398.617188 516.417969 397.726562 516.882812 396.855469 C 517.347656 395.988281 517.851562 395.144531 518.398438 394.324219 C 518.945312 393.503906 519.53125 392.714844 520.15625 391.953125 C 520.78125 391.191406 521.445312 390.460938 522.140625 389.765625 C 522.835938 389.070312 523.566406 388.40625 524.328125 387.78125 C 525.089844 387.15625 525.878906 386.570312 526.699219 386.023438 C 527.519531 385.476562 528.363281 384.972656 529.230469 384.507812 C 530.101562 384.042969 530.992188 383.621094 531.902344 383.242188 C 532.8125 382.867188 533.738281 382.535156 534.679688 382.25 C 535.625 381.964844 536.578125 381.722656 537.542969 381.53125 C 538.511719 381.339844 539.484375 381.195312 540.464844 381.097656 C 541.445312 381.003906 542.429688 380.953125 543.414062 380.953125 C 544.398438 380.953125 545.382812 381.003906 546.363281 381.097656 C 547.34375 381.195312 548.316406 381.339844 549.285156 381.53125 C 550.25 381.722656 551.203125 381.964844 552.148438 382.25 C 553.089844 382.535156 554.015625 382.867188 554.925781 383.242188 C 555.835938 383.621094 556.726562 384.042969 557.597656 384.507812 C 558.464844 384.972656 559.308594 385.476562 560.128906 386.023438 C 560.949219 386.570312 561.738281 387.15625 562.5 387.78125 C 563.261719 388.40625 563.992188 389.070312 564.6875 389.765625 C 565.382812 390.460938 566.046875 391.191406 566.671875 391.953125 C 567.296875 392.714844 567.882812 393.503906 568.429688 394.324219 C 568.976562 395.144531 569.484375 395.988281 569.945312 396.855469 C 570.410156 397.726562 570.832031 398.617188 571.210938 399.527344 C 571.585938 400.4375 571.917969 401.363281 572.203125 402.304688 C 572.488281 403.25 572.730469 404.203125 572.921875 405.167969 C 573.113281 406.136719 573.257812 407.109375 573.355469 408.089844 C 573.449219 409.070312 573.5 410.054688 573.5 411.039062 L 573.5 417.054688 C 574.683594 417.054688 575.859375 417.113281 577.039062 417.230469 C 578.214844 417.347656 579.382812 417.519531 580.542969 417.75 C 581.703125 417.980469 582.847656 418.265625 583.980469 418.609375 C 585.109375 418.953125 586.222656 419.351562 587.316406 419.804688 C 588.40625 420.257812 589.476562 420.761719 590.519531 421.320312 C 591.5625 421.875 592.574219 422.484375 593.558594 423.140625 C 594.539062 423.796875 595.488281 424.5 596.402344 425.25 C 597.316406 426 598.191406 426.792969 599.027344 427.628906 C 599.863281 428.464844 600.65625 429.339844 601.40625 430.253906 C 602.15625 431.167969 602.859375 432.117188 603.515625 433.101562 C 604.175781 434.085938 604.78125 435.097656 605.339844 436.140625 C 605.894531 437.183594 606.402344 438.25 606.851562 439.34375 C 607.304688 440.433594 607.703125 441.546875 608.046875 442.679688 C 608.390625 443.808594 608.675781 444.957031 608.90625 446.113281 C 609.136719 447.273438 609.3125 448.441406 609.429688 449.621094 C 609.542969 450.796875 609.601562 451.976562 609.601562 453.160156 L 609.601562 465.191406 C 609.601562 466.375 609.542969 467.554688 609.429688 468.730469 C 609.3125 469.90625 609.136719 471.074219 608.90625 472.234375 C 608.675781 473.394531 608.390625 474.542969 608.046875 475.671875 C 607.703125 476.804688 607.304688 477.914062 606.851562 479.007812 C 606.402344 480.101562 605.894531 481.167969 605.339844 482.210938 C 604.78125 483.253906 604.175781 484.265625 603.515625 485.25 C 602.859375 486.234375 602.15625 487.179688 601.40625 488.09375 C 600.65625 489.007812 599.863281 489.882812 599.027344 490.722656 C 598.191406 491.558594 597.316406 492.351562 596.402344 493.101562 C 595.488281 493.851562 594.539062 494.554688 593.558594 495.210938 C 592.574219 495.867188 591.5625 496.472656 590.519531 497.03125 C 589.476562 497.589844 588.40625 498.09375 587.316406 498.546875 C 586.222656 499 585.109375 499.398438 583.980469 499.742188 C 582.847656 500.082031 581.703125 500.371094 580.542969 500.601562 C 579.382812 500.832031 578.214844 501.003906 577.039062 501.121094 C 575.859375 501.238281 574.683594 501.292969 573.5 501.292969 Z M 543.414062 405.023438 C 543.019531 405.03125 542.632812 405.074219 542.25 405.15625 C 541.863281 405.238281 541.492188 405.355469 541.128906 405.511719 C 540.769531 405.664062 540.425781 405.851562 540.097656 406.070312 C 539.773438 406.292969 539.472656 406.539062 539.195312 406.820312 C 538.914062 407.097656 538.667969 407.398438 538.445312 407.722656 C 538.226562 408.050781 538.039062 408.394531 537.886719 408.753906 C 537.730469 409.117188 537.613281 409.488281 537.53125 409.875 C 537.449219 410.257812 537.40625 410.644531 537.398438 411.039062 L 537.398438 465.191406 C 537.398438 465.984375 537.472656 466.765625 537.628906 467.539062 C 537.78125 468.316406 538.011719 469.066406 538.3125 469.796875 C 538.617188 470.527344 538.984375 471.222656 539.425781 471.878906 C 539.863281 472.535156 540.363281 473.144531 540.921875 473.703125 C 541.480469 474.261719 542.089844 474.757812 542.746094 475.199219 C 543.402344 475.636719 544.097656 476.007812 544.824219 476.3125 C 545.554688 476.613281 546.308594 476.839844 547.082031 476.996094 C 547.859375 477.148438 548.640625 477.226562 549.429688 477.226562 L 573.5 477.226562 C 574.289062 477.226562 575.070312 477.148438 575.847656 476.996094 C 576.621094 476.839844 577.375 476.613281 578.105469 476.3125 C 578.835938 476.007812 579.527344 475.636719 580.183594 475.199219 C 580.84375 474.757812 581.449219 474.261719 582.007812 473.703125 C 582.566406 473.144531 583.066406 472.535156 583.503906 471.878906 C 583.945312 471.222656 584.316406 470.527344 584.617188 469.796875 C 584.917969 469.066406 585.148438 468.316406 585.300781 467.539062 C 585.457031 466.765625 585.535156 465.984375 585.535156 465.191406 L 585.535156 453.160156 C 585.535156 452.367188 585.457031 451.585938 585.300781 450.8125 C 585.148438 450.035156 584.917969 449.28125 584.617188 448.554688 C 584.316406 447.824219 583.945312 447.128906 583.503906 446.472656 C 583.066406 445.816406 582.566406 445.207031 582.007812 444.648438 C 581.449219 444.089844 580.84375 443.589844 580.183594 443.152344 C 579.527344 442.714844 578.835938 442.34375 578.105469 442.039062 C 577.375 441.738281 576.621094 441.507812 575.847656 441.355469 C 575.070312 441.203125 574.289062 441.125 573.5 441.125 L 561.464844 441.125 C 560.675781 441.125 559.890625 441.046875 559.117188 440.894531 C 558.34375 440.738281 557.589844 440.511719 556.859375 440.207031 C 556.128906 439.90625 555.4375 439.535156 554.78125 439.097656 C 554.121094 438.65625 553.515625 438.160156 552.957031 437.601562 C 552.398438 437.039062 551.898438 436.433594 551.460938 435.777344 C 551.019531 435.117188 550.648438 434.425781 550.347656 433.695312 C 550.042969 432.964844 549.816406 432.214844 549.664062 431.4375 C 549.507812 430.664062 549.429688 429.878906 549.429688 429.089844 L 549.429688 411.039062 C 549.421875 410.644531 549.378906 410.257812 549.296875 409.875 C 549.214844 409.488281 549.097656 409.117188 548.941406 408.753906 C 548.789062 408.394531 548.601562 408.050781 548.382812 407.722656 C 548.160156 407.398438 547.914062 407.097656 547.632812 406.820312 C 547.355469 406.539062 547.054688 406.292969 546.730469 406.070312 C 546.402344 405.851562 546.058594 405.664062 545.699219 405.511719 C 545.335938 405.355469 544.964844 405.238281 544.578125 405.15625 C 544.195312 405.074219 543.808594 405.03125 543.414062 405.023438 Z M 543.414062 405.023438 " fill-opacity="1" fill-rule="nonzero"/></svg>