<svg xmlns="http://www.w3.org/2000/svg" xmlns:xlink="http://www.w3.org/1999/xlink" width="1080" zoomAndPan="magnify" viewBox="0 0 810 809.999993" height="1080" preserveAspectRatio="xMidYMid meet" version="1.0"><path fill="#000000" d="M 630.039062 294.332031 C 629.726562 293.769531 629.359375 293.238281 628.945312 292.742188 C 628.527344 292.25 628.066406 291.796875 627.5625 291.394531 C 627.058594 290.988281 626.519531 290.636719 625.945312 290.335938 C 625.371094 290.035156 624.773438 289.792969 624.15625 289.609375 C 623.535156 289.425781 622.902344 289.300781 622.257812 289.242188 C 621.613281 289.179688 620.96875 289.183594 620.324219 289.246094 C 619.683594 289.3125 619.050781 289.4375 618.429688 289.625 C 617.8125 289.8125 617.214844 290.058594 616.644531 290.359375 C 616.074219 290.664062 615.535156 291.019531 615.035156 291.425781 C 614.53125 291.835938 614.074219 292.289062 613.660156 292.785156 C 613.246094 293.28125 612.882812 293.8125 612.570312 294.382812 C 612.261719 294.949219 612.007812 295.542969 611.8125 296.15625 C 611.617188 296.773438 611.484375 297.40625 611.410156 298.046875 C 611.339844 298.691406 611.328125 299.335938 611.382812 299.980469 C 611.433594 300.625 611.546875 301.257812 611.726562 301.878906 C 611.902344 302.503906 612.136719 303.101562 612.429688 303.679688 C 704.125 472.230469 575.285156 686.019531 383.066406 683.582031 C 378.824219 683.574219 374.585938 683.46875 370.351562 683.253906 C 366.117188 683.042969 361.886719 682.726562 357.667969 682.304688 C 353.449219 681.886719 349.242188 681.363281 345.046875 680.738281 C 340.851562 680.113281 336.675781 679.382812 332.519531 678.550781 C 328.359375 677.722656 324.222656 676.789062 320.109375 675.757812 C 316 674.722656 311.914062 673.589844 307.855469 672.355469 C 303.800781 671.121094 299.773438 669.789062 295.78125 668.359375 C 291.789062 666.925781 287.835938 665.398438 283.917969 663.773438 C 280.003906 662.148438 276.128906 660.429688 272.296875 658.613281 C 268.460938 656.800781 264.675781 654.890625 260.9375 652.890625 C 257.199219 650.890625 253.511719 648.800781 249.875 646.621094 C 246.238281 644.4375 242.65625 642.167969 239.132812 639.8125 C 235.605469 637.457031 232.140625 635.015625 228.734375 632.488281 C 225.328125 629.960938 221.988281 627.351562 218.710938 624.660156 C 215.433594 621.972656 212.222656 619.203125 209.082031 616.355469 C 205.9375 613.507812 202.867188 610.582031 199.871094 607.585938 C 196.871094 604.585938 193.949219 601.515625 191.101562 598.375 C 188.253906 595.234375 185.484375 592.023438 182.792969 588.746094 C 180.101562 585.46875 177.492188 582.128906 174.964844 578.722656 C 172.4375 575.316406 169.996094 571.851562 167.640625 568.328125 C 165.28125 564.800781 163.011719 561.222656 160.832031 557.585938 C 158.652344 553.949219 156.558594 550.261719 154.558594 546.523438 C 152.558594 542.785156 150.652344 539 148.835938 535.167969 C 147.019531 531.335938 145.300781 527.460938 143.675781 523.542969 C 142.050781 519.628906 140.523438 515.671875 139.089844 511.683594 C 137.660156 507.691406 136.328125 503.667969 135.09375 499.609375 C 133.859375 495.550781 132.726562 491.46875 131.691406 487.355469 C 130.660156 483.242188 129.726562 479.109375 128.894531 474.949219 C 128.066406 470.792969 127.335938 466.617188 126.710938 462.421875 C 126.085938 458.226562 125.5625 454.023438 125.140625 449.800781 C 124.722656 445.582031 124.40625 441.355469 124.195312 437.121094 C 123.980469 432.886719 123.871094 428.648438 123.867188 424.40625 C 121.46875 232.203125 335.21875 103.375 503.808594 195.074219 C 504.386719 195.378906 504.992188 195.628906 505.617188 195.816406 C 506.246094 196.003906 506.882812 196.128906 507.535156 196.191406 C 508.1875 196.253906 508.839844 196.25 509.492188 196.183594 C 510.140625 196.117188 510.78125 195.988281 511.40625 195.796875 C 512.03125 195.605469 512.632812 195.355469 513.210938 195.042969 C 513.785156 194.734375 514.328125 194.371094 514.832031 193.953125 C 515.335938 193.535156 515.796875 193.074219 516.210938 192.566406 C 516.625 192.058594 516.984375 191.515625 517.289062 190.9375 C 517.597656 190.359375 517.84375 189.757812 518.03125 189.128906 C 518.21875 188.503906 518.34375 187.863281 518.40625 187.210938 C 518.46875 186.558594 518.46875 185.910156 518.402344 185.257812 C 518.335938 184.605469 518.207031 183.96875 518.015625 183.34375 C 517.820312 182.714844 517.570312 182.117188 517.261719 181.539062 C 516.949219 180.960938 516.585938 180.421875 516.167969 179.917969 C 515.753906 179.414062 515.289062 178.953125 514.78125 178.539062 C 514.277344 178.125 513.734375 177.765625 513.15625 177.460938 C 508.488281 175 503.757812 172.679688 498.960938 170.488281 C 494.160156 168.300781 489.304688 166.25 484.390625 164.335938 C 479.476562 162.421875 474.515625 160.648438 469.5 159.015625 C 464.484375 157.382812 459.429688 155.890625 454.328125 154.546875 C 449.230469 153.199219 444.097656 152 438.929688 150.941406 C 433.761719 149.886719 428.570312 148.980469 423.351562 148.21875 C 418.132812 147.457031 412.898438 146.84375 407.644531 146.378906 C 402.390625 145.917969 397.128906 145.601562 391.859375 145.433594 C 386.585938 145.269531 381.316406 145.253906 376.042969 145.386719 C 370.773438 145.519531 365.507812 145.800781 360.253906 146.230469 C 354.996094 146.660156 349.757812 147.242188 344.535156 147.96875 C 339.3125 148.695312 334.113281 149.570312 328.9375 150.59375 C 323.765625 151.617188 318.625 152.785156 313.515625 154.097656 C 308.410156 155.414062 303.34375 156.871094 298.320312 158.472656 C 293.292969 160.070312 288.320312 161.8125 283.394531 163.695312 C 278.46875 165.578125 273.597656 167.601562 268.789062 169.757812 C 263.976562 171.917969 259.230469 174.210938 254.546875 176.640625 C 249.867188 179.066406 245.257812 181.625 240.722656 184.316406 C 236.183594 187.003906 231.726562 189.820312 227.351562 192.761719 C 222.972656 195.703125 218.683594 198.765625 214.480469 201.949219 C 210.277344 205.136719 206.167969 208.4375 202.152344 211.855469 C 198.136719 215.269531 194.21875 218.800781 190.402344 222.4375 C 186.589844 226.078125 182.878906 229.824219 179.273438 233.671875 C 175.671875 237.523438 172.179688 241.472656 168.796875 245.519531 C 165.417969 249.566406 162.15625 253.707031 159.011719 257.941406 C 155.867188 262.171875 152.84375 266.492188 149.941406 270.894531 C 147.042969 275.296875 144.269531 279.78125 141.621094 284.34375 C 138.976562 288.902344 136.460938 293.535156 134.074219 298.238281 C 131.691406 302.941406 129.441406 307.710938 127.328125 312.542969 C 125.214844 317.371094 123.242188 322.257812 121.402344 327.203125 C 119.566406 332.144531 117.871094 337.136719 116.320312 342.175781 C 114.765625 347.214844 113.355469 352.292969 112.089844 357.414062 C 110.824219 362.53125 109.703125 367.683594 108.730469 372.863281 C 107.753906 378.046875 106.929688 383.253906 106.25 388.480469 C 105.570312 393.710938 105.042969 398.957031 104.660156 404.214844 C 104.277344 409.472656 104.046875 414.738281 103.964844 420.011719 C 103.878906 425.285156 103.945312 430.554688 104.160156 435.824219 C 104.378906 441.09375 104.742188 446.351562 105.257812 451.597656 C 105.769531 456.847656 106.433594 462.078125 107.242188 467.285156 C 108.050781 472.496094 109.007812 477.679688 110.113281 482.835938 C 111.21875 487.992188 112.464844 493.113281 113.859375 498.199219 C 115.253906 503.285156 116.792969 508.328125 118.472656 513.324219 C 120.152344 518.324219 121.972656 523.269531 123.933594 528.167969 C 125.894531 533.0625 127.992188 537.898438 130.226562 542.671875 C 132.460938 547.449219 134.828125 552.160156 137.328125 556.800781 C 139.832031 561.441406 142.460938 566.011719 145.222656 570.503906 C 147.984375 574.996094 150.867188 579.410156 153.878906 583.738281 C 156.890625 588.066406 160.019531 592.308594 163.269531 596.460938 C 166.519531 600.613281 169.886719 604.667969 173.367188 608.628906 C 176.847656 612.59375 180.4375 616.453125 184.136719 620.210938 C 187.835938 623.96875 191.640625 627.617188 195.546875 631.160156 C 199.453125 634.703125 203.457031 638.132812 207.558594 641.445312 C 211.660156 644.761719 215.851562 647.957031 220.132812 651.035156 C 224.414062 654.113281 228.78125 657.070312 233.230469 659.898438 C 237.679688 662.730469 242.203125 665.433594 246.808594 668.007812 C 251.410156 670.582031 256.082031 673.023438 260.824219 675.332031 C 265.5625 677.640625 270.367188 679.8125 275.230469 681.851562 C 280.09375 683.886719 285.011719 685.785156 289.984375 687.542969 C 294.957031 689.300781 299.972656 690.917969 305.039062 692.394531 C 310.101562 693.867188 315.203125 695.195312 320.339844 696.382812 C 325.480469 697.566406 330.648438 698.605469 335.847656 699.496094 C 341.042969 700.390625 346.261719 701.132812 351.503906 701.730469 C 356.742188 702.324219 361.996094 702.773438 367.257812 703.070312 C 372.523438 703.371094 377.792969 703.519531 383.066406 703.519531 C 590.109375 706.101562 728.851562 475.898438 630.039062 294.332031 Z M 630.039062 294.332031 " fill-opacity="1" fill-rule="nonzero"/><path fill="#000000" d="M 383.066406 344.660156 C 391.761719 344.65625 400.214844 346.070312 408.433594 348.902344 C 409.050781 349.113281 409.6875 349.265625 410.335938 349.351562 C 410.984375 349.441406 411.632812 349.464844 412.289062 349.425781 C 412.941406 349.386719 413.582031 349.28125 414.214844 349.117188 C 414.847656 348.949219 415.460938 348.722656 416.046875 348.4375 C 416.636719 348.148438 417.191406 347.808594 417.710938 347.414062 C 418.234375 347.015625 418.710938 346.574219 419.144531 346.082031 C 419.578125 345.59375 419.960938 345.066406 420.289062 344.5 C 420.621094 343.933594 420.890625 343.34375 421.105469 342.726562 C 425.484375 325.089844 394.433594 325.792969 383.070312 324.722656 C 250.828125 330.1875 250.835938 518.632812 383.070312 524.089844 C 384.699219 524.089844 386.328125 524.046875 387.957031 523.964844 C 389.585938 523.882812 391.214844 523.761719 392.835938 523.601562 C 394.460938 523.4375 396.078125 523.238281 397.691406 522.996094 C 399.304688 522.757812 400.910156 522.476562 402.507812 522.15625 C 404.109375 521.835938 405.699219 521.480469 407.28125 521.082031 C 408.863281 520.683594 410.433594 520.25 411.996094 519.773438 C 413.554688 519.300781 415.101562 518.785156 416.640625 518.234375 C 418.175781 517.6875 419.695312 517.097656 421.203125 516.472656 C 422.707031 515.847656 424.199219 515.1875 425.671875 514.488281 C 427.148438 513.789062 428.601562 513.058594 430.039062 512.289062 C 431.480469 511.519531 432.898438 510.714844 434.296875 509.875 C 435.695312 509.035156 437.070312 508.164062 438.429688 507.257812 C 439.785156 506.351562 441.117188 505.410156 442.425781 504.441406 C 443.738281 503.46875 445.023438 502.464844 446.28125 501.429688 C 447.542969 500.394531 448.777344 499.328125 449.984375 498.234375 C 451.195312 497.140625 452.375 496.015625 453.527344 494.863281 C 454.683594 493.707031 455.804688 492.527344 456.902344 491.320312 C 457.996094 490.109375 459.0625 488.875 460.097656 487.617188 C 461.132812 486.355469 462.136719 485.070312 463.105469 483.761719 C 464.078125 482.449219 465.019531 481.117188 465.925781 479.761719 C 466.832031 478.40625 467.703125 477.03125 468.542969 475.632812 C 469.382812 474.230469 470.1875 472.8125 470.957031 471.375 C 471.726562 469.9375 472.460938 468.480469 473.15625 467.007812 C 473.855469 465.535156 474.515625 464.042969 475.140625 462.539062 C 475.765625 461.03125 476.355469 459.511719 476.90625 457.976562 C 477.457031 456.441406 477.96875 454.890625 478.441406 453.332031 C 478.917969 451.773438 479.351562 450.199219 479.75 448.617188 C 480.148438 447.039062 480.507812 445.445312 480.824219 443.847656 C 481.144531 442.25 481.425781 440.640625 481.667969 439.027344 C 481.90625 437.414062 482.109375 435.796875 482.269531 434.175781 C 482.429688 432.550781 482.554688 430.925781 482.632812 429.296875 C 482.714844 427.667969 482.757812 426.039062 482.761719 424.40625 C 481.742188 412.835938 482.414062 382.113281 464.859375 386.476562 C 464.238281 386.6875 463.644531 386.960938 463.082031 387.289062 C 462.515625 387.621094 461.988281 388 461.496094 388.433594 C 461.007812 388.867188 460.5625 389.347656 460.167969 389.867188 C 459.769531 390.386719 459.429688 390.941406 459.140625 391.53125 C 458.855469 392.121094 458.628906 392.730469 458.460938 393.363281 C 458.296875 393.996094 458.191406 394.640625 458.152344 395.292969 C 458.113281 395.945312 458.136719 396.597656 458.226562 397.246094 C 458.3125 397.894531 458.464844 398.527344 458.679688 399.148438 C 461.472656 407.335938 462.855469 415.757812 462.820312 424.40625 C 458.824219 530.039062 307.3125 530.042969 303.3125 424.40625 C 303.316406 423.101562 303.347656 421.796875 303.414062 420.496094 C 303.480469 419.191406 303.578125 417.890625 303.707031 416.59375 C 303.835938 415.296875 303.996094 414 304.1875 412.710938 C 304.382812 411.421875 304.605469 410.136719 304.863281 408.855469 C 305.117188 407.578125 305.402344 406.304688 305.722656 405.039062 C 306.039062 403.773438 306.390625 402.515625 306.769531 401.269531 C 307.148438 400.019531 307.558594 398.78125 308 397.554688 C 308.4375 396.324219 308.910156 395.109375 309.410156 393.902344 C 309.910156 392.699219 310.4375 391.507812 310.996094 390.328125 C 311.554688 389.148438 312.144531 387.984375 312.757812 386.832031 C 313.375 385.683594 314.015625 384.546875 314.6875 383.429688 C 315.359375 382.3125 316.058594 381.210938 316.78125 380.125 C 317.507812 379.039062 318.261719 377.972656 319.039062 376.925781 C 319.816406 375.878906 320.617188 374.851562 321.445312 373.839844 C 322.273438 372.832031 323.125 371.847656 324 370.878906 C 324.878906 369.914062 325.777344 368.96875 326.699219 368.046875 C 327.621094 367.121094 328.566406 366.222656 329.535156 365.347656 C 330.5 364.472656 331.488281 363.617188 332.496094 362.792969 C 333.503906 361.964844 334.535156 361.160156 335.582031 360.382812 C 336.628906 359.605469 337.695312 358.855469 338.78125 358.128906 C 339.867188 357.40625 340.96875 356.707031 342.085938 356.035156 C 343.207031 355.363281 344.339844 354.71875 345.492188 354.105469 C 346.640625 353.488281 347.804688 352.902344 348.984375 352.34375 C 350.164062 351.785156 351.355469 351.257812 352.5625 350.757812 C 353.765625 350.257812 354.984375 349.785156 356.210938 349.347656 C 357.441406 348.90625 358.679688 348.496094 359.925781 348.117188 C 361.175781 347.738281 362.433594 347.386719 363.699219 347.070312 C 364.964844 346.75 366.234375 346.464844 367.515625 346.210938 C 368.792969 345.953125 370.078125 345.730469 371.371094 345.535156 C 372.660156 345.34375 373.953125 345.183594 375.253906 345.054688 C 376.550781 344.925781 377.851562 344.828125 379.15625 344.761719 C 380.457031 344.695312 381.761719 344.664062 383.066406 344.660156 Z M 383.066406 344.660156 " fill-opacity="1" fill-rule="nonzero"/><path fill="#000000" d="M 478.519531 272.242188 C 478.835938 271.667969 479.097656 271.070312 479.296875 270.449219 C 479.496094 269.824219 479.632812 269.1875 479.707031 268.539062 C 479.78125 267.886719 479.792969 267.234375 479.738281 266.582031 C 479.683594 265.929688 479.566406 265.289062 479.386719 264.660156 C 479.207031 264.03125 478.964844 263.425781 478.664062 262.84375 C 478.367188 262.261719 478.011719 261.714844 477.605469 261.203125 C 477.195312 260.691406 476.742188 260.222656 476.242188 259.800781 C 475.746094 259.378906 475.207031 259.007812 474.636719 258.691406 C 467.65625 254.828125 460.460938 251.421875 453.054688 248.464844 C 445.644531 245.511719 438.078125 243.039062 430.355469 241.042969 C 422.632812 239.042969 414.8125 237.539062 406.902344 236.53125 C 398.988281 235.523438 391.042969 235.015625 383.066406 235.011719 C 131.820312 245.394531 131.824219 603.425781 383.070312 613.804688 C 387.167969 613.808594 391.257812 613.675781 395.347656 613.414062 C 399.4375 613.152344 403.511719 612.753906 407.574219 612.226562 C 411.636719 611.699219 415.679688 611.039062 419.699219 610.25 C 423.71875 609.460938 427.707031 608.539062 431.667969 607.492188 C 435.628906 606.441406 439.550781 605.265625 443.433594 603.960938 C 447.320312 602.65625 451.15625 601.226562 454.949219 599.675781 C 458.738281 598.121094 462.476562 596.445312 466.160156 594.652344 C 469.839844 592.855469 473.460938 590.941406 477.019531 588.910156 C 480.578125 586.882812 484.066406 584.738281 487.484375 582.480469 C 490.902344 580.222656 494.246094 577.855469 497.511719 575.382812 C 500.777344 572.910156 503.957031 570.332031 507.054688 567.652344 C 510.15625 564.96875 513.164062 562.191406 516.078125 559.316406 C 518.996094 556.4375 521.820312 553.472656 524.542969 550.414062 C 527.269531 547.351562 529.890625 544.210938 532.414062 540.980469 C 534.933594 537.75 537.347656 534.441406 539.652344 531.054688 C 541.957031 527.671875 544.152344 524.214844 546.234375 520.683594 C 548.316406 517.15625 550.28125 513.5625 552.128906 509.90625 C 553.976562 506.25 555.703125 502.539062 557.308594 498.769531 C 558.917969 495.003906 560.402344 491.1875 561.761719 487.320312 C 563.121094 483.457031 564.351562 479.550781 565.457031 475.609375 C 566.5625 471.664062 567.539062 467.6875 568.386719 463.679688 C 569.234375 459.671875 569.953125 455.640625 570.539062 451.585938 C 571.125 447.53125 571.578125 443.460938 571.898438 439.378906 C 572.21875 435.292969 572.410156 431.203125 572.464844 427.109375 C 572.519531 423.011719 572.445312 418.917969 572.234375 414.828125 C 572.023438 410.734375 571.683594 406.65625 571.207031 402.585938 C 570.734375 398.515625 570.125 394.46875 569.390625 390.4375 C 568.652344 386.410156 567.785156 382.40625 566.785156 378.433594 C 565.789062 374.460938 564.664062 370.523438 563.410156 366.625 C 562.15625 362.722656 560.777344 358.867188 559.273438 355.054688 C 557.773438 351.246094 556.144531 347.488281 554.398438 343.78125 C 552.652344 340.078125 550.785156 336.433594 548.800781 332.847656 C 548.484375 332.273438 548.117188 331.734375 547.695312 331.234375 C 547.273438 330.730469 546.804688 330.273438 546.292969 329.863281 C 545.78125 329.453125 545.230469 329.097656 544.648438 328.796875 C 544.066406 328.496094 543.460938 328.253906 542.828125 328.070312 C 542.199219 327.890625 541.558594 327.769531 540.902344 327.714844 C 540.25 327.660156 539.597656 327.667969 538.945312 327.742188 C 538.292969 327.816406 537.652344 327.953125 537.027344 328.152344 C 536.402344 328.355469 535.804688 328.613281 535.230469 328.929688 C 534.65625 329.25 534.121094 329.621094 533.617188 330.042969 C 533.117188 330.46875 532.664062 330.9375 532.257812 331.453125 C 531.847656 331.964844 531.496094 332.515625 531.195312 333.097656 C 530.894531 333.683594 530.65625 334.289062 530.476562 334.921875 C 530.296875 335.550781 530.179688 336.195312 530.128906 336.847656 C 530.074219 337.5 530.085938 338.15625 530.164062 338.804688 C 530.238281 339.457031 530.378906 340.097656 530.582031 340.71875 C 530.785156 341.34375 531.042969 341.941406 531.363281 342.515625 C 594.554688 452.09375 509.667969 596.0625 383.066406 593.867188 C 380.292969 593.863281 377.519531 593.792969 374.753906 593.652344 C 371.984375 593.515625 369.21875 593.308594 366.460938 593.035156 C 363.699219 592.757812 360.949219 592.417969 358.207031 592.007812 C 355.464844 591.597656 352.734375 591.121094 350.015625 590.578125 C 347.296875 590.035156 344.59375 589.425781 341.902344 588.75 C 339.214844 588.074219 336.542969 587.335938 333.890625 586.527344 C 331.238281 585.722656 328.605469 584.851562 325.996094 583.914062 C 323.386719 582.980469 320.800781 581.980469 318.238281 580.917969 C 315.679688 579.855469 313.144531 578.730469 310.636719 577.542969 C 308.132812 576.355469 305.65625 575.109375 303.210938 573.800781 C 300.769531 572.492188 298.355469 571.125 295.980469 569.699219 C 293.601562 568.273438 291.257812 566.789062 288.953125 565.25 C 286.648438 563.707031 284.382812 562.113281 282.15625 560.460938 C 279.929688 558.808594 277.746094 557.101562 275.601562 555.34375 C 273.460938 553.585938 271.359375 551.773438 269.304688 549.910156 C 267.25 548.050781 265.246094 546.136719 263.285156 544.179688 C 261.324219 542.21875 259.410156 540.210938 257.550781 538.15625 C 255.6875 536.101562 253.875 534.003906 252.117188 531.859375 C 250.359375 529.71875 248.652344 527.53125 247 525.308594 C 245.347656 523.082031 243.75 520.816406 242.210938 518.507812 C 240.667969 516.203125 239.183594 513.863281 237.757812 511.484375 C 236.332031 509.109375 234.964844 506.699219 233.65625 504.253906 C 232.347656 501.808594 231.101562 499.332031 229.914062 496.828125 C 228.726562 494.320312 227.605469 491.789062 226.542969 489.226562 C 225.480469 486.667969 224.480469 484.082031 223.542969 481.472656 C 222.609375 478.863281 221.738281 476.230469 220.929688 473.578125 C 220.125 470.925781 219.382812 468.253906 218.707031 465.566406 C 218.03125 462.878906 217.421875 460.171875 216.878906 457.453125 C 216.335938 454.734375 215.859375 452.003906 215.449219 449.261719 C 215.039062 446.519531 214.699219 443.769531 214.421875 441.011719 C 214.148438 438.253906 213.941406 435.488281 213.804688 432.71875 C 213.664062 429.953125 213.59375 427.179688 213.589844 424.40625 C 211.417969 297.820312 355.363281 212.933594 464.96875 276.128906 C 465.542969 276.445312 466.140625 276.707031 466.761719 276.90625 C 467.386719 277.105469 468.023438 277.246094 468.675781 277.320312 C 469.324219 277.394531 469.976562 277.402344 470.628906 277.351562 C 471.28125 277.296875 471.921875 277.179688 472.550781 277 C 473.183594 276.816406 473.789062 276.578125 474.371094 276.277344 C 474.953125 275.976562 475.5 275.621094 476.011719 275.214844 C 476.523438 274.804688 476.988281 274.351562 477.414062 273.851562 C 477.835938 273.351562 478.203125 272.8125 478.519531 272.242188 Z M 478.519531 272.242188 " fill-opacity="1" fill-rule="nonzero"/><path fill="#000000" d="M 643.863281 234.113281 L 571.285156 306.683594 C 570.355469 307.601562 569.285156 308.308594 568.078125 308.808594 C 566.871094 309.308594 565.613281 309.5625 564.308594 309.574219 L 563.511719 309.574219 L 515.757812 305.886719 L 390.144531 431.484375 C 389.675781 431.933594 389.171875 432.332031 388.625 432.679688 C 388.078125 433.03125 387.503906 433.324219 386.902344 433.5625 C 386.300781 433.800781 385.679688 433.976562 385.042969 434.09375 C 384.40625 434.210938 383.761719 434.265625 383.113281 434.257812 C 382.464844 434.253906 381.824219 434.183594 381.191406 434.050781 C 380.554688 433.917969 379.941406 433.726562 379.34375 433.476562 C 378.746094 433.226562 378.179688 432.917969 377.640625 432.558594 C 377.101562 432.195312 376.605469 431.785156 376.148438 431.328125 C 375.6875 430.871094 375.277344 430.371094 374.917969 429.832031 C 374.554688 429.296875 374.25 428.730469 373.996094 428.132812 C 373.746094 427.535156 373.554688 426.917969 373.421875 426.285156 C 373.292969 425.648438 373.222656 425.007812 373.214844 424.359375 C 373.207031 423.710938 373.261719 423.070312 373.378906 422.433594 C 373.496094 421.796875 373.675781 421.175781 373.914062 420.574219 C 374.152344 419.96875 374.445312 419.394531 374.792969 418.851562 C 375.144531 418.304688 375.542969 417.796875 375.988281 417.328125 L 501.601562 291.730469 L 497.914062 243.984375 C 497.816406 242.539062 498.023438 241.140625 498.527344 239.785156 C 499.03125 238.429688 499.789062 237.238281 500.804688 236.207031 L 573.378906 163.636719 C 574.0625 162.976562 574.820312 162.417969 575.65625 161.972656 C 576.496094 161.523438 577.378906 161.199219 578.308594 161.003906 C 579.238281 160.804688 580.175781 160.738281 581.125 160.808594 C 582.074219 160.875 582.992188 161.074219 583.886719 161.402344 C 584.777344 161.730469 585.605469 162.175781 586.371094 162.738281 C 587.136719 163.304688 587.808594 163.960938 588.386719 164.714844 C 588.964844 165.46875 589.429688 166.289062 589.777344 167.171875 C 590.121094 168.054688 590.339844 168.972656 590.425781 169.917969 L 593.71875 213.777344 L 637.582031 217.066406 C 638.527344 217.15625 639.445312 217.375 640.328125 217.71875 C 641.214844 218.066406 642.03125 218.53125 642.785156 219.109375 C 643.539062 219.6875 644.199219 220.359375 644.761719 221.125 C 645.324219 221.890625 645.769531 222.71875 646.097656 223.609375 C 646.425781 224.503906 646.625 225.421875 646.695312 226.371094 C 646.761719 227.316406 646.695312 228.257812 646.5 229.183594 C 646.300781 230.113281 645.976562 231 645.53125 231.835938 C 645.082031 232.675781 644.527344 233.433594 643.863281 234.113281 Z M 643.863281 234.113281 " fill-opacity="1" fill-rule="nonzero"/></svg>