<svg xmlns="http://www.w3.org/2000/svg" xmlns:xlink="http://www.w3.org/1999/xlink" width="1080" zoomAndPan="magnify" viewBox="0 0 810 809.999993" height="1080" preserveAspectRatio="xMidYMid meet" version="1.0"><defs><clipPath id="1c7ef10f4d"><path d="M 226.113281 226.113281 L 583.863281 226.113281 L 583.863281 583.863281 L 226.113281 583.863281 Z M 226.113281 226.113281 " clip-rule="nonzero"/></clipPath></defs><g clip-path="url(#1c7ef10f4d)"><path fill="#000000" d="M 404.988281 226.113281 C 306.519531 226.113281 226.113281 306.519531 226.113281 404.988281 C 226.113281 503.460938 306.519531 583.863281 404.988281 583.863281 C 503.460938 583.863281 583.863281 503.460938 583.863281 404.988281 C 583.863281 306.519531 503.460938 226.113281 404.988281 226.113281 Z M 404.988281 247.367188 C 491.769531 247.367188 562.613281 318.207031 562.613281 404.988281 C 562.613281 491.769531 491.769531 562.613281 404.988281 562.613281 C 318.207031 562.613281 247.367188 491.769531 247.367188 404.988281 C 247.367188 318.207031 318.207031 247.367188 404.988281 247.367188 Z M 404.988281 288.101562 C 398.96875 288.101562 394.363281 292.707031 394.363281 298.726562 L 394.363281 386.574219 C 387.988281 390.117188 383.738281 397.195312 383.738281 404.988281 C 383.738281 416.679688 393.300781 426.242188 404.988281 426.242188 C 412.78125 426.242188 419.863281 421.992188 423.40625 415.617188 L 475.832031 415.617188 C 481.851562 415.617188 486.457031 411.011719 486.457031 404.988281 C 486.457031 398.96875 481.851562 394.363281 475.832031 394.363281 L 423.40625 394.363281 C 421.632812 391.175781 418.804688 388.34375 415.617188 386.574219 L 415.617188 298.726562 C 415.617188 292.707031 411.011719 288.101562 404.988281 288.101562 Z M 404.988281 288.101562 " fill-opacity="1" fill-rule="nonzero"/></g></svg>