<svg xmlns="http://www.w3.org/2000/svg" xmlns:xlink="http://www.w3.org/1999/xlink" width="1080" zoomAndPan="magnify" viewBox="0 0 810 809.999993" height="1080" preserveAspectRatio="xMidYMid meet" version="1.0"><defs><clipPath id="6d1d97d5f0"><path d="M 82 118 L 728 118 L 728 700.351562 L 82 700.351562 Z M 82 118 " clip-rule="nonzero"/></clipPath></defs><g clip-path="url(#6d1d97d5f0)"><path fill="#000000" d="M 283.855469 291.765625 C 284.066406 292.023438 284.292969 292.273438 284.535156 292.515625 L 397.769531 405.695312 C 399.492188 407.417969 401.703125 408.390625 403.972656 408.601562 C 404.308594 408.632812 404.648438 408.652344 404.984375 408.652344 C 405.097656 408.652344 405.207031 408.648438 405.320312 408.644531 C 407.882812 408.5625 410.320312 407.496094 412.125 405.695312 L 525.359375 292.515625 C 525.59375 292.28125 525.816406 292.035156 526.027344 291.777344 L 545.949219 271.863281 C 581.101562 236.730469 581.101562 179.5625 545.949219 144.425781 C 510.800781 109.296875 453.605469 109.292969 418.449219 144.425781 L 404.945312 157.921875 L 391.445312 144.425781 C 356.292969 109.292969 299.09375 109.292969 263.941406 144.425781 C 228.792969 179.5625 228.792969 236.730469 263.941406 271.863281 Z M 278.191406 158.667969 C 291.414062 145.449219 308.996094 138.171875 327.695312 138.171875 C 346.394531 138.171875 363.976562 145.449219 377.199219 158.664062 L 397.824219 179.28125 C 399.714844 181.171875 402.273438 182.230469 404.949219 182.230469 C 407.621094 182.230469 410.179688 181.171875 412.070312 179.28125 L 432.699219 158.664062 L 432.699219 158.667969 C 445.921875 145.449219 463.5 138.171875 482.199219 138.171875 C 500.898438 138.171875 518.480469 145.449219 531.703125 158.664062 C 559 185.949219 559 230.339844 531.703125 257.625 L 511.078125 278.238281 C 510.835938 278.480469 510.613281 278.726562 510.402344 278.984375 L 404.949219 384.386719 L 299.5 278.988281 C 299.289062 278.730469 299.0625 278.480469 298.820312 278.238281 L 278.195312 257.621094 C 250.894531 230.339844 250.894531 185.949219 278.191406 158.667969 Z M 724.519531 392.605469 C 706.367188 374.464844 679.050781 368.71875 655.253906 377.640625 C 647.980469 374.90625 640.199219 373.464844 632.195312 373.464844 C 614.875 373.464844 598.578125 380.148438 586.261719 392.300781 L 511.296875 455.765625 C 511.328125 454.964844 511.359375 454.160156 511.359375 453.351562 C 511.359375 447.789062 506.847656 443.28125 501.285156 443.28125 L 269.882812 443.28125 C 236.804688 443.28125 205.707031 456.15625 182.316406 479.53125 L 85.371094 576.429688 C 81.4375 580.363281 81.4375 586.734375 85.371094 590.667969 C 87.339844 592.632812 89.917969 593.617188 92.496094 593.617188 C 95.074219 593.617188 97.652344 592.632812 99.621094 590.667969 L 196.566406 493.773438 C 216.148438 474.199219 242.1875 463.417969 269.882812 463.417969 L 490.007812 463.417969 C 485.460938 482.265625 468.457031 496.3125 448.226562 496.3125 L 325.019531 496.3125 C 319.457031 496.3125 314.945312 500.820312 314.945312 506.382812 C 314.945312 511.945312 319.457031 516.453125 325.019531 516.453125 L 448.226562 516.453125 C 466.070312 516.453125 482.199219 509 493.691406 497.058594 L 599.589844 407.410156 C 599.800781 407.230469 600.003906 407.042969 600.203125 406.847656 C 615.394531 391.660156 638.796875 389.554688 656.269531 400.523438 L 495.933594 560.78125 C 481.023438 575.679688 461.210938 583.882812 440.132812 583.882812 L 282.101562 583.882812 C 263.710938 583.882812 246.417969 591.042969 233.414062 604.042969 L 154.285156 683.128906 C 150.351562 687.0625 150.351562 693.4375 154.285156 697.371094 C 156.253906 699.335938 158.832031 700.316406 161.410156 700.316406 C 163.988281 700.316406 166.566406 699.335938 168.535156 697.371094 L 247.660156 618.28125 C 256.859375 609.085938 269.089844 604.023438 282.101562 604.023438 L 486.21875 604.023438 C 512.675781 604.023438 537.550781 593.722656 556.261719 575.023438 L 724.523438 406.847656 C 728.453125 402.914062 728.453125 396.539062 724.519531 392.605469 Z M 542.011719 560.78125 C 530.910156 571.882812 517.078125 579.257812 502.03125 582.300781 C 504.855469 580.035156 507.582031 577.617188 510.179688 575.023438 L 678.4375 406.847656 C 682.042969 403.246094 682.335938 397.601562 679.339844 393.652344 C 687.425781 393.859375 695.402344 396.199219 702.339844 400.535156 Z M 542.011719 560.78125 " fill-opacity="1" fill-rule="nonzero"/></g></svg>