<svg xmlns="http://www.w3.org/2000/svg" xmlns:xlink="http://www.w3.org/1999/xlink" width="1080" zoomAndPan="magnify" viewBox="0 0 810 809.999993" height="1080" preserveAspectRatio="xMidYMid meet" version="1.0"><defs><clipPath id="1210cc5878"><path d="M 81 225.585938 L 729 225.585938 L 729 584 L 81 584 Z M 81 225.585938 " clip-rule="nonzero"/></clipPath></defs><g clip-path="url(#1210cc5878)"><path fill="#000000" d="M 725.214844 397.140625 C 708.726562 368.503906 615.953125 225.640625 405.066406 225.640625 C 190.292969 225.640625 100.515625 368.699219 84.6875 397.371094 C 80.96875 404.113281 81.097656 412.070312 84.980469 418.710938 C 101.238281 446.296875 193.09375 583.898438 405.066406 583.898438 C 616.84375 583.898438 708.792969 446.363281 725.082031 418.808594 C 729.066406 412.070312 729.097656 403.945312 725.214844 397.140625 Z M 405.03125 548.816406 C 325.523438 548.816406 260.855469 484.207031 260.855469 404.769531 C 260.855469 325.332031 325.523438 260.722656 405.03125 260.722656 C 484.542969 260.722656 549.210938 325.332031 549.210938 404.769531 C 549.210938 484.207031 484.542969 548.816406 405.03125 548.816406 Z M 105.386719 407.761719 C 119.109375 383.199219 183.8125 282.257812 330.328125 255.429688 C 275.5 282.914062 237.71875 339.46875 237.71875 404.800781 C 237.71875 470.300781 275.695312 526.953125 330.722656 554.339844 C 185.652344 528.363281 119.503906 431.402344 105.386719 407.761719 Z M 479.34375 554.339844 C 534.371094 526.917969 572.347656 470.265625 572.347656 404.769531 C 572.347656 339.734375 534.894531 283.375 480.460938 255.757812 C 623.984375 283.113281 690.429688 383.398438 704.679688 407.859375 C 690.496094 431.535156 624.3125 528.429688 479.34375 554.339844 Z M 479.34375 554.339844 " fill-opacity="1" fill-rule="nonzero"/></g><path fill="#000000" d="M 501.492188 333.550781 L 470.820312 331.941406 C 464.269531 331.546875 459.003906 336.511719 458.675781 342.890625 C 458.347656 349.269531 463.25 354.691406 469.636719 355.023438 L 474.339844 355.25 L 410.496094 408.222656 L 389.464844 388.558594 C 384.5625 383.957031 377.222656 383.332031 371.597656 387.046875 L 301.265625 433.277344 C 295.9375 436.792969 294.453125 443.960938 297.976562 449.289062 C 300.214844 452.675781 303.898438 454.484375 307.652344 454.484375 C 309.824219 454.484375 312.027344 453.859375 314.003906 452.578125 L 378.574219 410.128906 L 400.195312 430.351562 C 405.527344 435.316406 413.753906 435.578125 419.382812 430.910156 L 490.304688 372.054688 L 490.007812 377.644531 C 489.675781 384.023438 494.582031 389.445312 500.964844 389.777344 C 501.164062 389.777344 501.394531 389.808594 501.589844 389.808594 C 507.710938 389.808594 512.8125 385.007812 513.144531 378.859375 L 514.753906 348.183594 C 515.117188 340.554688 509.195312 333.980469 501.492188 333.550781 Z M 501.492188 333.550781 " fill-opacity="1" fill-rule="nonzero"/></svg>