<svg xmlns="http://www.w3.org/2000/svg" xmlns:xlink="http://www.w3.org/1999/xlink" width="1080" zoomAndPan="magnify" viewBox="0 0 810 809.999993" height="1080" preserveAspectRatio="xMidYMid meet" version="1.0"><defs><clipPath id="befc60681e"><path d="M 208.292969 207 L 602 207 L 602 602.851562 L 208.292969 602.851562 Z M 208.292969 207 " clip-rule="nonzero"/></clipPath></defs><g clip-path="url(#befc60681e)"><path fill="#000000" d="M 544.382812 264.644531 C 507.402344 227.621094 458.222656 207.21875 405.824219 207.199219 C 297.847656 207.199219 209.972656 295.066406 209.9375 403.070312 C 209.917969 437.59375 218.945312 471.296875 236.085938 500.996094 L 208.292969 602.507812 L 312.136719 575.269531 C 340.746094 590.878906 372.960938 599.097656 405.738281 599.109375 L 405.824219 599.109375 C 513.78125 599.109375 601.664062 511.230469 601.703125 403.230469 C 601.722656 350.886719 581.367188 301.679688 544.382812 264.652344 Z M 405.824219 566.027344 L 405.757812 566.027344 C 376.546875 566.019531 347.890625 558.164062 322.890625 543.335938 L 316.945312 539.804688 L 255.320312 555.96875 L 271.765625 495.882812 L 267.898438 489.722656 C 251.601562 463.800781 242.988281 433.839844 243.007812 403.078125 C 243.042969 313.316406 316.078125 240.28125 405.890625 240.28125 C 449.375 240.300781 490.253906 257.253906 520.992188 288.03125 C 551.734375 318.800781 568.652344 359.714844 568.632812 403.210938 C 568.59375 492.984375 495.558594 566.019531 405.824219 566.019531 Z M 495.128906 444.09375 C 490.234375 441.644531 466.171875 429.808594 461.679688 428.175781 C 457.191406 426.539062 453.933594 425.722656 450.671875 430.625 C 447.414062 435.53125 438.03125 446.554688 435.175781 449.816406 C 432.320312 453.082031 429.464844 453.488281 424.570312 451.035156 C 419.679688 448.585938 403.910156 443.417969 385.207031 426.746094 C 370.660156 413.765625 360.835938 397.746094 357.980469 392.839844 C 355.125 387.9375 357.679688 385.289062 360.121094 382.855469 C 362.320312 380.660156 365.015625 377.136719 367.464844 374.28125 C 369.917969 371.425781 370.726562 369.378906 372.359375 366.121094 C 373.992188 362.851562 373.175781 359.996094 371.957031 357.542969 C 370.734375 355.09375 360.949219 331 356.863281 321.207031 C 352.886719 311.664062 348.851562 312.957031 345.855469 312.800781 C 343 312.660156 339.738281 312.628906 336.472656 312.628906 C 333.203125 312.628906 327.90625 313.851562 323.414062 318.753906 C 318.925781 323.65625 306.285156 335.5 306.285156 359.582031 C 306.285156 383.664062 323.820312 406.949219 326.269531 410.21875 C 328.722656 413.484375 360.789062 462.917969 409.882812 484.125 C 421.558594 489.167969 430.675781 492.183594 437.785156 494.4375 C 449.507812 498.167969 460.179688 497.640625 468.613281 496.382812 C 478.015625 494.972656 497.570312 484.539062 501.644531 473.109375 C 505.722656 461.675781 505.722656 451.871094 504.5 449.832031 C 503.28125 447.796875 500.011719 446.566406 495.117188 444.113281 Z M 495.128906 444.09375 " fill-opacity="1" fill-rule="evenodd"/></g></svg>